<?xml version="1.0" encoding="UTF-8"?>
<svg width="30px" height="30px" viewBox="0 0 30 30" version="1.1" xmlns="http://www.w3.org/2000/svg" xmlns:xlink="http://www.w3.org/1999/xlink">
    <!-- Generator: Sketch 63 (92445) - https://sketch.com -->
    <title>Group 5</title>
    <desc>Created with Sketch.</desc>
    <defs>
        <linearGradient x1="50%" y1="0%" x2="50%" y2="100%" id="linearGradient-1">
            <stop stop-color="#35AFFA" offset="0%"></stop>
            <stop stop-color="#1877F2" offset="100%"></stop>
        </linearGradient>
    </defs>
    <g id="Symbols" stroke="none" stroke-width="1" fill="none" fill-rule="evenodd">
        <g id="header" transform="translate(-1378.000000, -19.000000)" fill="url(#linearGradient-1)">
            <g id="Group-5" transform="translate(1378.000000, 19.000000)">
                <path d="M29.5774648,15.4292371 C29.5774648,7.37213819 23.0855996,0.84057971 15.0774648,0.84057971 C7.06933002,0.84057971 0.577464789,7.37213819 0.577464789,15.4292371 C0.577464789,22.7108578 5.87990522,28.7462309 12.8118398,29.8405797 L12.8118398,19.6462709 L9.13019916,19.6462709 L9.13019916,15.4292371 L12.8118398,15.4292371 L12.8118398,12.2151736 C12.8118398,8.55889129 14.9765878,6.53927402 18.288705,6.53927402 C19.875124,6.53927402 21.534496,6.82420874 21.534496,6.82420874 L21.534496,10.4143862 L19.70608,10.4143862 C17.9048232,10.4143862 17.3430898,11.538938 17.3430898,12.6926387 L17.3430898,15.4292371 L21.3645742,15.4292371 L20.7217031,19.6462709 L17.3430898,19.6462709 L17.3430898,29.8405797 C24.2750244,28.7462309 29.5774648,22.7108578 29.5774648,15.4292371" id="Fill-1"></path>
            </g>
        </g>
    </g>
</svg>