<?xml version="1.0" encoding="UTF-8"?>
<svg width="30px" height="30px" viewBox="0 0 30 30" version="1.1" xmlns="http://www.w3.org/2000/svg" xmlns:xlink="http://www.w3.org/1999/xlink">
    <!-- Generator: Sketch 63 (92445) - https://sketch.com -->
    <title>Group 14</title>
    <desc>Created with Sketch.</desc>
    <defs>
        <linearGradient x1="50%" y1="0%" x2="50%" y2="100%" id="linearGradient-1">
            <stop stop-color="#00DD00" offset="0%"></stop>
            <stop stop-color="#00B900" offset="100%"></stop>
        </linearGradient>
        <linearGradient x1="50%" y1="0%" x2="50%" y2="100%" id="linearGradient-2">
            <stop stop-color="#00DD00" offset="0%"></stop>
            <stop stop-color="#00B900" offset="100%"></stop>
        </linearGradient>
        <linearGradient x1="50%" y1="0%" x2="50%" y2="100%" id="linearGradient-3">
            <stop stop-color="#00DD00" offset="0%"></stop>
            <stop stop-color="#00B900" offset="100%"></stop>
        </linearGradient>
        <linearGradient x1="50%" y1="0%" x2="50%" y2="100%" id="linearGradient-4">
            <stop stop-color="#00DD00" offset="0%"></stop>
            <stop stop-color="#00B900" offset="100%"></stop>
        </linearGradient>
    </defs>
    <g id="Symbols" stroke="none" stroke-width="1" fill="none" fill-rule="evenodd">
        <g id="header" transform="translate(-1373.000000, -20.000000)">
            <g id="Group-14" transform="translate(1373.000000, 20.000000)">
                <path d="M23.4998667,30 L6.49986667,30 C2.91011667,30 -0.000133333333,27.08975 -0.000133333333,23.5 L-0.000133333333,6.5 C-0.000133333333,2.91025 2.91011667,0 6.49986667,0 L23.4998667,0 C27.0896167,0 29.9998667,2.91025 29.9998667,6.5 L29.9998667,23.5 C29.9998667,27.08975 27.0896167,30 23.4998667,30" id="Fill-1" fill="url(#linearGradient-1)"></path>
                <path d="M25.8738917,13.9428263 C25.8738917,9.01186246 20.9741417,5 14.9511417,5 C8.92889167,5 4.02864167,9.01186246 4.02864167,13.9428263 C4.02864167,18.3635426 7.91439167,22.0659272 13.1633917,22.7658466 C13.5191417,22.8432791 14.0033917,23.0021798 14.1256417,23.3091354 C14.2358917,23.5878421 14.1976417,24.0241882 14.1608917,24.3054171 C14.1608917,24.3054171 14.0328917,25.0830213 14.0051417,25.2489842 C13.9573917,25.5274386 13.7856417,26.3385885 14.9511417,25.8429698 C16.1171417,25.3473512 21.2416417,22.1062829 23.5333917,19.4450758 L23.5328917,19.4450758 C25.1156417,17.6936378 25.8738917,15.916473 25.8738917,13.9428263" id="Fill-4" fill="#FFFFFF"></path>
                <path d="M12.7319167,11 L11.9656667,11 C11.8484167,11 11.7529167,11.1102431 11.7529167,11.2459491 L11.7529167,16.7543403 C11.7529167,16.8900463 11.8484167,17 11.9656667,17 L12.7319167,17 C12.8494167,17 12.9446667,16.8900463 12.9446667,16.7543403 L12.9446667,11.2459491 C12.9446667,11.1102431 12.8494167,11 12.7319167,11" id="Fill-6" fill="url(#linearGradient-2)"></path>
                <path d="M18.0054667,11 L17.2394667,11 C17.1217167,11 17.0267167,11.1102431 17.0267167,11.2459491 L17.0267167,14.5185185 L14.8454667,11.109375 C14.8404667,11.1006944 14.8347167,11.0923032 14.8289667,11.0844907 C14.8284667,11.083912 14.8279667,11.0833333 14.8277167,11.0827546 C14.8234667,11.0775463 14.8189667,11.072338 14.8147167,11.0677083 C14.8134667,11.0662616 14.8122167,11.0648148 14.8109667,11.0633681 C14.8072167,11.0598958 14.8034667,11.0558449 14.7994667,11.052662 C14.7977167,11.0506366 14.7959667,11.0491898 14.7939667,11.0474537 C14.7904667,11.0445602 14.7867167,11.0416667 14.7829667,11.0387731 C14.7809667,11.037037 14.7787167,11.0358796 14.7764667,11.0344329 C14.7727167,11.0318287 14.7689667,11.0292245 14.7652167,11.0269097 C14.7629667,11.0257523 14.7607167,11.0243056 14.7584667,11.0231481 C14.7544667,11.0211227 14.7504667,11.0188079 14.7462167,11.0173611 C14.7437167,11.0162037 14.7417167,11.0153356 14.7392167,11.0144676 C14.7352167,11.0124421 14.7309667,11.0109954 14.7267167,11.0095486 C14.7242167,11.0086806 14.7219667,11.0081019 14.7192167,11.0072338 C14.7152167,11.0060764 14.7112167,11.0052083 14.7069667,11.0043403 C14.7039667,11.0037616 14.7009667,11.0031829 14.6979667,11.0028935 C14.6944667,11.0020255 14.6907167,11.0017361 14.6869667,11.0011574 C14.6832167,11.0008681 14.6797167,11.0005787 14.6759667,11.0002894 C14.6732167,11.0002894 14.6709667,11 14.6684667,11 L13.9022167,11 C13.7849667,11 13.6894667,11.1102431 13.6894667,11.2459491 L13.6894667,16.7543403 C13.6894667,16.8900463 13.7849667,17 13.9022167,17 L14.6684667,17 C14.7859667,17 14.8812167,16.8900463 14.8812167,16.7543403 L14.8812167,13.4829282 L17.0649667,16.8961227 C17.0802167,16.9207176 17.0987167,16.9409722 17.1189667,16.9568866 C17.1197167,16.9574653 17.1204667,16.958044 17.1212167,16.958912 C17.1254667,16.9620949 17.1299667,16.9652778 17.1344667,16.9681713 C17.1362167,16.9693287 17.1382167,16.9704861 17.1404667,16.9719329 C17.1437167,16.9739583 17.1469667,16.9759838 17.1504667,16.9777199 C17.1539667,16.979456 17.1572167,16.9809028 17.1609667,16.9826389 C17.1632167,16.9835069 17.1652167,16.9846644 17.1672167,16.9855324 C17.1722167,16.9875579 17.1769667,16.989294 17.1817167,16.9910301 C17.1827167,16.9910301 17.1839667,16.9916088 17.1849667,16.9916088 C17.2019667,16.9971065 17.2202167,17 17.2394667,17 L18.0054667,17 C18.1229667,17 18.2182167,16.8900463 18.2182167,16.7543403 L18.2182167,11.2459491 C18.2182167,11.1102431 18.1229667,11 18.0054667,11" id="Fill-8" fill="url(#linearGradient-3)"></path>
                <path d="M10.8851167,15.6204369 L8.80336667,15.6204369 L8.80336667,11.2459372 C8.80336667,11.1099484 8.70811667,11 8.59061667,11 L7.82436667,11 C7.70711667,11 7.61161667,11.1099484 7.61161667,11.2459372 L7.61161667,16.7534841 L7.61161667,16.7540628 C7.61161667,16.8200318 7.63461667,16.8799248 7.67136667,16.9239041 C7.67211667,16.9250615 7.67286667,16.9265082 7.67411667,16.9279549 C7.67511667,16.9288229 7.67636667,16.9296909 7.67711667,16.9311376 C7.71561667,16.9736703 7.76711667,17 7.82411667,17 L7.82436667,17 L10.8851167,17 C11.0026167,17 11.0976167,16.8894729 11.0976167,16.7534841 L11.0976167,15.8669528 C11.0976167,15.730964 11.0026167,15.6204369 10.8851167,15.6204369" id="Fill-10" fill="url(#linearGradient-4)"></path>
                <path d="M22.2364167,12.3792738 C22.3539167,12.3792738 22.4489167,12.269036 22.4489167,12.1330472 L22.4489167,11.2462266 C22.4489167,11.1102377 22.3539167,11 22.2364167,11 L19.1759167,11 L19.1754167,11 C19.1179167,11 19.0661667,11.0266191 19.0279167,11.0694411 C19.0271667,11.0705984 19.0261667,11.0711771 19.0254167,11.0720451 C19.0241667,11.0734918 19.0229167,11.0749385 19.0221667,11.0763852 C18.9856667,11.1203646 18.9629167,11.1799682 18.9629167,11.2459372 L18.9629167,11.2462266 L18.9629167,16.7534841 L18.9629167,16.7540628 C18.9629167,16.8200318 18.9856667,16.8799248 19.0226667,16.9239041 C19.0231667,16.9253508 19.0244167,16.9267975 19.0254167,16.9279549 C19.0261667,16.9288229 19.0274167,16.9302696 19.0286667,16.9308482 C19.0666667,16.9733809 19.1181667,17 19.1754167,17 L19.1759167,17 L22.2364167,17 C22.3539167,17 22.4489167,16.8894729 22.4489167,16.7534841 L22.4489167,15.8669528 C22.4489167,15.730964 22.3539167,15.6204369 22.2364167,15.6204369 L20.1549167,15.6204369 L20.1549167,14.6893475 L22.2364167,14.6893475 C22.3539167,14.6893475 22.4489167,14.5793991 22.4489167,14.443121 L22.4489167,13.5565897 C22.4489167,13.4206009 22.3539167,13.3100738 22.2364167,13.3100738 L20.1549167,13.3100738 L20.1549167,12.3792738 L22.2364167,12.3792738 Z" id="Fill-12" fill="url(#linearGradient-4)"></path>
            </g>
        </g>
    </g>
</svg>