<?xml version="1.0" encoding="UTF-8"?>
<svg width="230px" height="69px" viewBox="0 0 230 69" version="1.1" xmlns="http://www.w3.org/2000/svg" xmlns:xlink="http://www.w3.org/1999/xlink">
    <!-- Generator: Sketch 63 (92445) - https://sketch.com -->
    <title>header</title>
    <desc>Created with Sketch.</desc>
    <defs>
        <polygon id="path-1" points="0 0.273679084 40.8430151 0.273679084 40.8430151 42.3274356 0 42.3274356"></polygon>
    </defs>
    <g id="Symbols" stroke="none" stroke-width="1" fill="none" fill-rule="evenodd">
        <g id="header">
            <g id="Group-4" transform="translate(29.000000, 13.000000)">
                <g id="Group-17-Copy">
                    <path d="M15.912614,31.543376 C15.912614,31.543376 15.55734,31.0927825 15.269121,31.0524902 C15.269121,31.0524902 15.1808907,30.8203834 15.3779383,30.5984917 L15.7614461,30.0048887 L15.866146,29.4924379 C15.866146,29.4924379 15.8414416,28.2132971 16.1102499,27.9857304 C16.1102499,27.9857304 16.3278847,27.5538643 16.5731649,27.506762 L16.5514014,27.2099605 C16.5514014,27.2099605 16.8313856,26.6555148 17.1619552,26.304801 L17.6872196,25.7026855 C17.6872196,25.7026855 18.6942215,24.3809824 19.0383197,23.7317646 C19.0383197,23.7317646 19.6059347,23.2153413 20.0582621,23.0655218 C20.0582621,23.0655218 20.0547329,22.5286686 20.2582508,22.395874 C20.2582508,22.395874 20.3429519,22.0922625 20.5847029,21.9855729 C20.5847029,21.9855729 20.771163,21.6155641 20.9482118,21.6030792 C20.9482118,21.6030792 22.037562,21.3783499 22.206376,21.2478253 C22.206376,21.2478253 22.9380994,21.0179886 22.9792735,20.6275499 C22.9792735,20.6275499 23.1798504,20.435168 23.4280717,20.4181431 C23.4280717,20.4181431 23.915103,20.2643511 24.1133271,20.5197253 C24.1133271,20.5197253 24.3950759,20.9470513 24.6074168,20.9317289 L25.0732728,20.9589688 L25.2667913,21.1536206 C25.2667913,21.1536206 25.6455934,20.9788312 25.6614749,21.1865355 C25.6614749,21.1865355 25.6920614,21.6008092 26.0120433,21.5786767 C26.0120433,21.5786767 26.0602759,21.7540336 25.6408878,21.8720733 C25.6408878,21.8720733 25.0356279,22.3618241 25.0379807,22.8674649 L25.3861963,23.7079296 C25.3861963,23.7079296 25.2944368,23.9218764 25.1997363,24.0779384 C25.1997363,24.0779384 24.8203459,24.7288587 24.7979943,24.9098906 C24.7979943,24.9098906 24.8244634,25.2657119 24.3462551,25.5375435 C24.3462551,25.5375435 24.2174388,25.7242504 24.1950872,25.9041473 C24.1950872,25.9041473 23.9380429,26.2798311 24.0245086,26.4824279 C24.0245086,26.4824279 24.0127445,26.8110093 23.8462833,26.9710438 C23.8462833,26.9710438 23.7733463,27.4227723 23.64453,27.6111816 C23.64453,27.6111816 23.298079,29.1831514 23.2916088,29.5718876 C23.2916088,29.5718876 23.3427824,29.7761869 22.9963314,29.9191964 C22.9963314,29.9191964 22.7910489,30.5003145 22.7728146,30.7386637 C22.7728146,30.7386637 22.712818,30.8924557 22.4734197,31.0280877 C22.4734197,31.0280877 22.0387384,31.8923874 21.8299267,31.9655946 C21.8299267,31.9655946 21.519356,32.1074692 21.6028807,32.2799886 C21.6028807,32.2799886 21.4881813,32.6454574 21.0023264,32.8287592 C21.0023264,32.8287592 20.6652866,33.0898084 20.5147069,33.4575472 C20.5147069,33.4575472 20.3035424,33.9790779 20.1700205,34.106765 C20.1700205,34.106765 19.7512206,34.7020705 19.9688554,35.2224663 C19.9688554,35.2224663 19.9482683,35.9097065 19.8176875,36.067471 C19.8176875,36.067471 19.4782949,36.3001452 19.6776954,36.5827592 C19.6776954,36.5827592 19.4271213,36.5714093 19.2365438,36.4062673 C19.2365438,36.4062673 19.0959635,36.4448572 19.0342023,36.5697068 C19.0342023,36.5697068 18.7995097,36.2876602 18.8442131,35.9267314 C18.8442131,35.9267314 18.9542068,35.0261119 18.2383649,34.5091211 C18.2383649,34.5091211 16.8590311,33.7117863 16.8172688,33.6249591 L16.3514127,33.1221558 C16.3514127,33.1221558 16.3049448,32.9763088 16.3514127,32.6454574 C16.3514127,32.6454574 16.0543707,32.0109945 15.9455533,31.9894295 L15.912614,31.543376 Z" id="Fill-1" fill="#E50113"></path>
                    <g id="Group-5" transform="translate(0.000000, 0.559367)">
                        <mask id="mask-2" fill="white">
                            <use xlink:href="#path-1"></use>
                        </mask>
                        <g id="Clip-4"></g>
                        <path d="M40.5258655,26.574413 C37.0660643,16.6025213 27.2660643,13.4900015 27.2660643,13.4900015 L24.5157602,14.990018 C27.6190936,11.2362079 26.7130234,6.31752215 26.7130234,6.31752215 C25.9215731,0.575479853 20.9803099,0.276288312 20.9803099,0.276288312 C15.1220877,0.13133117 14.2807778,6.06297741 14.2807778,6.06297741 C13.2417485,10.0406014 16.8740526,15.0961267 16.8740526,15.0961267 L14.1856433,13.6210428 C3.84864912,14.7882377 0.456473684,24.2005948 0.456473684,24.2005948 C-2.11960819,32.9994933 7.04310526,37.7813395 7.04310526,37.7813395 C7.71305848,38.063716 11.5579825,39.663463 13.2543567,40.3696942 C13.296193,40.1006538 13.4589532,39.6588244 14.0526842,39.4326913 C14.0526842,39.4326913 16.2321813,38.7983588 16.8597251,38.6481832 C16.8597251,38.6481832 15.9737135,38.6110742 16.2688596,37.5267948 C16.2688596,37.5267948 16.3450819,37.049016 17.1886842,36.8988404 C8.11193567,31.4014858 7.31131579,25.0801947 7.31131579,25.0801947 C7.23795906,24.7230203 7.2052924,24.3559889 7.21503509,23.9831591 C7.30787719,20.7320603 10.6782749,18.2190833 14.7449883,18.3686791 C17.1783684,18.4585525 19.309152,19.4831096 20.6083684,20.9877647 L20.698345,20.9929832 L20.7143918,20.9616724 C20.7046491,20.9709497 20.6943333,20.9808068 20.6840175,20.9906639 C20.6943333,20.9808068 20.7046491,20.9709497 20.7143918,20.9616724 L20.7166842,20.9587733 L20.7143918,20.9616724 C22.0972807,19.5735628 24.2670351,18.720635 26.6837953,18.8105085 C30.7499357,18.9606841 33.9713275,21.7189285 33.8790585,24.9700273 C33.8687427,25.3434369 33.8160175,25.7075693 33.720883,26.0577857 C33.720883,26.0577857 32.3420058,33.5961369 20.2049064,38.493369 L20.0971637,38.48989 C19.3005556,38.0996654 18.5572456,37.7024828 17.8557719,37.2989221 C17.8546257,37.2989221 17.8483216,37.299502 17.8483216,37.299502 C16.7399474,37.1904942 16.7909532,37.7332137 16.7909532,37.7332137 C16.6207427,38.4504617 18.0007661,38.3281178 18.0007661,38.3281178 C18.5721462,38.4626381 18.0219708,38.7635691 18.0219708,38.7635691 C17.2242164,39.2384487 14.5908246,39.9701923 14.5908246,39.9701923 C13.9896433,40.0316542 13.8469415,40.353459 13.8297485,40.6080038 C13.9770351,40.6688858 14.0618538,40.7059948 14.0618538,40.7059948 C14.3690351,40.6897596 15.9977836,41.4806458 15.9977836,41.4806458 C17.6059006,42.8728141 19.4168947,42.1288941 19.4168947,42.1288941 C20.9212807,41.4006294 24.5123216,41.3861337 24.5123216,41.3861337 C30.2736901,41.6447372 33.6813392,39.9487387 33.6813392,39.9487387 C43.0818889,34.8468271 40.5258655,26.574413 40.5258655,26.574413" id="Fill-3" fill="#E50113" mask="url(#mask-2)"></path>
                    </g>
                    <path d="M30.4464595,34.2940377 C30.391741,34.4994778 30.1154572,34.7740205 29.8472467,34.781491 C29.5548165,34.788339 29.6507982,34.4366007 29.6741208,34.3425963 C29.7126929,34.2037686 29.7763817,34.0630732 29.8373794,33.9317161 C29.8490408,33.8862702 29.9252879,33.8844026 30.000638,33.8812899 C30.1926014,33.8763095 30.3791826,33.9366964 30.4356952,34.0549801 C30.4644,34.1365336 30.4679881,34.2193322 30.4464595,34.2940377" id="Fill-6" fill="#FEFEFE"></path>
                    <path d="M30.8121773,35.6821744 L30.8121773,38.6594619 C30.8121773,38.881419 30.8477362,39.0179099 30.9208669,39.0695724 C30.9933267,39.1231482 31.1516647,39.156952 31.395881,39.1741729 L31.395881,39.2845136 L29.6018307,39.2845136 L29.6018307,39.1741729 C29.86282,39.1556764 30.0251836,39.1154945 30.0889214,39.0549028 C30.154001,38.9917598 30.1855344,38.8367725 30.1855344,38.5880274 L30.1855344,35.6821744 L30.8121773,35.6821744 Z" id="Fill-8" fill="#FEFEFE"></path>
                    <path d="M30.4988558,38.3351417 C30.6012825,38.3245931 30.6651672,38.3048145 30.6910378,38.2764652 C30.7169085,38.2481159 30.7295798,38.1736166 30.7295798,38.0562636 L30.7295798,36.8781194 C30.7295798,36.7792265 30.7153245,36.7152757 30.6862861,36.6862672 C30.6577755,36.6565993 30.5954748,36.6381393 30.4988558,36.6315464 L30.4988558,36.5827592 L31.2274578,36.5827592 L31.2274578,36.6315464 C31.1313668,36.6381393 31.0685381,36.6565993 31.0394996,36.6862672 C31.0104611,36.7152757 30.9962059,36.7792265 30.9962059,36.8781194 L30.9962059,37.4042297 L31.7955561,37.4042297 L31.7955561,36.8781194 C31.7955561,36.7792265 31.7813009,36.7152757 31.7527904,36.6862672 C31.7248078,36.6565993 31.6614511,36.6381393 31.5643042,36.6315464 L31.5643042,36.5827592 L32.2929062,36.5827592 L32.2929062,36.6315464 C32.1962872,36.6381393 32.1339865,36.6565993 32.104948,36.6862672 C32.0764375,36.7152757 32.0621822,36.7792265 32.0621822,36.8781194 L32.0621822,38.0885687 C32.0621822,38.1881209 32.0764375,38.2527309 32.104948,38.2804209 C32.1339865,38.3081109 32.1962872,38.3272302 32.2929062,38.3351417 L32.2929062,38.3839288 L31.5643042,38.3839288 L31.5643042,38.3351417 C31.6677868,38.3252524 31.7321994,38.3067924 31.7570142,38.2771245 C31.7828848,38.2481159 31.7955561,38.1736166 31.7955561,38.0562636 L31.7955561,37.5261976 L30.9962059,37.5261976 L30.9962059,38.0885687 C30.9962059,38.1881209 31.0104611,38.2527309 31.0394996,38.2804209 C31.0685381,38.3094295 31.1313668,38.3278895 31.2274578,38.3351417 L31.2274578,38.3839288 L30.4988558,38.3839288 L30.4988558,38.3351417 Z" id="Fill-10" fill="#FEFEFE"></path>
                    <path d="M33.2801575,37.828114 C33.3470215,37.9453611 33.4259694,38.0397926 33.5178067,38.1101409 C33.6765081,38.2305569 33.8730722,38.2920324 34.1074991,38.2920324 C34.235588,38.2920324 34.3459539,38.2654142 34.4394024,38.2121776 C34.5312398,38.1589411 34.577964,38.0841564 34.577964,37.9903587 C34.577964,37.9054337 34.5296286,37.8312828 34.4353745,37.7672722 C34.373344,37.7273448 34.2444495,37.6677706 34.0454686,37.587282 L33.7006758,37.4472192 C33.5967546,37.4053905 33.51539,37.3610267 33.4549707,37.3185643 C33.3413824,37.2355406 33.2857966,37.1455455 33.2857966,37.0441426 C33.2857966,36.9123188 33.3542718,36.8014093 33.4896111,36.7139493 C33.6265615,36.627123 33.8054026,36.5827592 34.0293568,36.5827592 C34.1211941,36.5827592 34.23156,36.5973359 34.3636769,36.6245879 C34.4917658,36.65184 34.5666857,36.6657829 34.5852143,36.6657829 C34.6351609,36.6657829 34.6689958,36.660079 34.6891355,36.6448685 C34.7076641,36.6302919 34.7229703,36.6093775 34.7326374,36.5827592 L34.8059462,36.5827592 L34.8945611,37.1392078 L34.7995014,37.1392078 C34.7326374,36.9712592 34.6279106,36.8540121 34.4829043,36.7881002 C34.3370924,36.720287 34.1928917,36.6866972 34.0511077,36.6866972 C33.9399362,36.6866972 33.8440709,36.7095129 33.7619007,36.7507078 C33.680536,36.7938041 33.6386453,36.8521108 33.6386453,36.928163 C33.6386453,36.9953424 33.670869,37.0530153 33.733705,37.1011817 C33.7973467,37.1493481 33.8948232,37.2000496 34.0277456,37.2520186 L34.3822055,37.3946165 C34.6045485,37.4839778 34.7600275,37.5644664 34.8510592,37.6386173 C34.9404798,37.7134019 34.9839817,37.8027633 34.9839817,37.9041662 C34.9839817,38.0410602 34.9050338,38.1557722 34.7487492,38.2470349 C34.5892423,38.3382975 34.3878446,38.3839288 34.1429451,38.3839288 C34.0204953,38.3839288 33.8916008,38.3687184 33.7562616,38.3382975 C33.6233391,38.3091442 33.5451968,38.2939337 33.5266682,38.2939337 C33.479944,38.2939337 33.4477204,38.3028065 33.4316085,38.3224533 C33.4163023,38.3427339 33.405024,38.3636482 33.3993849,38.3839288 L33.3091588,38.3839288 L33.1899314,37.828114 L33.2801575,37.828114 Z" id="Fill-12" fill="#FEFEFE"></path>
                    <path d="M33.1714645,35.3712749 C30.807328,34.8193519 28.5166821,35.2755964 27.8077803,36.3883016 C27.8366113,36.2319382 27.8914466,36.0804473 27.9762434,35.9347148 C28.6981474,34.6997538 31.2352695,34.4113895 33.644631,35.2906569 C34.5598718,35.6242027 35.3247395,36.0791184 35.8810069,36.5827592 C35.2128076,36.0662727 34.2755196,35.6295182 33.1714645,35.3712749" id="Fill-14" fill="#FEFEFE"></path>
                </g>
                <path d="M61.2135235,16.2835972 L61.6970975,15.959312 C61.8805221,15.8227708 61.8971971,15.7886355 61.8138223,15.669162 C60.6632497,14.1672096 59.1791778,12.6140541 57.7451308,11.4363868 C57.628406,11.3510486 57.5783811,11.3681163 57.4283064,11.4875898 L57.0614572,11.7436044 C56.8780326,11.8801455 56.8780326,11.9313485 56.9780824,12.0166867 C57.6951059,12.6311218 58.4288043,13.3308951 59.1291529,14.098939 C57.161507,14.3208183 54.5602124,14.5426977 52.1923674,14.6792388 C52.9427408,13.4162333 53.5763895,12.0849572 54.2433881,10.6342077 C54.3767878,10.3269901 54.5768874,9.98563727 54.6769372,9.88323142 C54.7436371,9.81496085 54.8103369,9.72962265 54.8103369,9.62721679 C54.8103369,9.54187858 54.7269621,9.45654037 54.5602124,9.38826981 C54.310088,9.28586395 53.9098888,9.1834581 53.4930147,9.09811989 C53.4596647,9.40533745 53.359615,9.8320285 53.1928653,10.2587195 C52.5258667,11.8801455 51.908893,13.2284892 51.0417948,14.7304417 L49.8578723,14.7816447 C49.3742983,14.7987123 48.8240244,14.7987123 48.1403509,14.764577 C48.2070507,15.1400651 48.3071005,15.6008915 48.3904754,15.8910414 C48.4238253,16.0105149 48.4905251,16.0958531 48.5905749,16.0958531 C48.7072997,16.0958531 48.7906745,16.0446502 48.8740493,15.9934472 C48.9907741,15.9251767 49.1241738,15.8910414 49.6911226,15.8569061 C52.6592664,15.7032973 56.7112829,15.3278092 59.8461764,14.9181858 C60.2297006,15.3790121 60.5798748,15.8398385 60.8966992,16.3006648 C60.980074,16.4201383 61.0134239,16.4201383 61.2135235,16.2835972 Z M51.1418446,24.4248624 C51.2585694,24.4248624 51.2752443,24.4077947 51.2752443,24.2883212 L51.2752443,23.4178715 L58.7789786,23.4178715 L58.7789786,24.2200507 C58.7789786,24.3395242 58.7956536,24.3565918 58.8957034,24.3565918 L59.6961017,24.3565918 C59.8295014,24.3565918 59.8461764,24.3395242 59.8461764,24.2200507 L59.8457515,24.1979108 C59.8421546,24.0777343 59.8168482,23.6131354 59.8132513,21.6597425 L59.8128264,19.5264491 C59.8128264,18.2805113 59.8461764,17.8196849 59.8461764,17.7343467 C59.8461764,17.6148732 59.8295014,17.5978056 59.6961017,17.5978056 C59.6165166,17.5978056 59.0963197,17.6289082 57.6279096,17.6317357 L52.6592664,17.6319409 C51.0251198,17.6319409 50.458171,17.5978056 50.3581212,17.5978056 C50.2413965,17.5978056 50.2247215,17.6148732 50.2247215,17.7343467 C50.2247215,17.8316323 50.2548198,18.2369888 50.2578297,19.535751 L50.2576465,21.7171101 C50.253773,23.8465348 50.2247215,24.2086722 50.2247215,24.2883212 C50.2247215,24.4077947 50.2413965,24.4248624 50.3581212,24.4248624 L51.1418446,24.4248624 Z M58.7789786,22.4620835 L51.2752443,22.4620835 L51.2752443,18.5877288 L58.7789786,18.5877288 L58.7789786,22.4620835 Z M70.4848041,17.0345734 C70.6015289,17.0345734 70.6182038,17.0175058 70.6182038,16.8980323 C70.6182038,16.8126941 70.5848539,16.5054765 70.5848539,15.7032973 L70.5848539,13.7917214 L71.485302,13.6551803 C71.5353269,13.7746538 71.5853518,13.9282626 71.6520517,14.0648037 C71.7020766,14.1842772 71.7187515,14.2013448 71.9021761,14.1160066 L72.1523006,13.9965331 C72.3023753,13.9282626 72.3190503,13.9111949 72.2690254,13.8087891 C72.0189009,13.2455569 71.7687764,12.8017982 71.4352771,12.3409719 C71.3685773,12.2556337 71.3519023,12.2556337 71.2351775,12.3068366 L70.9850531,12.4263101 C70.8683283,12.477513 70.8516533,12.5116483 70.9016782,12.5799189 L71.2185026,13.1090158 C70.6682287,13.1772863 70.1346298,13.2455569 69.584356,13.2967598 C70.0846049,12.8017982 70.534829,12.2727013 71.1351277,11.4534545 C71.3352273,11.1803722 71.4186022,11.1121016 71.5353269,11.0438311 C71.6187017,10.9926282 71.6687266,10.9243576 71.6687266,10.8731547 C71.6687266,10.8048841 71.6187017,10.7536812 71.5353269,10.6854106 C71.3685773,10.5659371 71.1684777,10.4464636 70.9517031,10.3269901 C70.8683283,10.5659371 70.7682785,10.7707488 70.6348788,10.9755605 L70.0345801,11.8630779 C69.8511554,11.6582662 69.6510559,11.4705221 69.4509563,11.2827781 C69.7177557,10.9414252 69.9678802,10.61714 70.3013795,10.1051108 C70.4014293,9.93443435 70.4681291,9.84909614 70.5681789,9.78082557 C70.6515538,9.72962265 70.7015787,9.67841972 70.7015787,9.61014915 C70.7015787,9.55894623 70.6849037,9.5077433 70.5681789,9.43947273 C70.4014293,9.33706688 70.2013297,9.25172867 69.9178553,9.14932282 C69.8511554,9.38826981 69.7677806,9.61014915 69.6677308,9.81496085 C69.4509563,10.2245843 69.2341817,10.5488695 69.0007322,10.856087 L68.6505579,10.5659371 C68.5671831,10.4948219 68.5301276,10.4948219 68.4718425,10.55606 L68.2003339,10.8731547 C68.1002841,10.9926282 68.1002841,11.0096958 68.166984,11.0779664 C68.6839079,11.4875898 69.1508069,11.9142808 69.584356,12.4263101 C69.3342315,12.7335276 69.0507571,13.0407452 68.7672827,13.3650304 C68.5004833,13.382098 68.3003837,13.3650304 68.0002343,13.3479627 C68.0335842,13.5698421 68.0836091,13.8087891 68.133634,13.9794655 C68.166984,14.098939 68.2170089,14.1672096 68.2837087,14.1672096 C68.3337336,14.1672096 68.3837585,14.1330743 68.4504584,14.0818713 C68.5004833,14.0477361 68.6505579,14.0136008 69.0340821,13.9623979 C69.3008816,13.9453302 69.567681,13.9111949 69.8511554,13.8770596 L69.8511554,15.7032973 C69.8511554,16.5054765 69.8178055,16.7956264 69.8178055,16.8980323 C69.8178055,17.0175058 69.8344805,17.0345734 69.9345303,17.0345734 L70.4848041,17.0345734 Z M78.2219879,17.0345734 C78.3387127,17.0345734 78.3553876,17.0175058 78.3553876,16.8980323 C78.3553876,16.8126941 78.3220377,16.5054765 78.3220377,15.7032973 L78.3220377,13.7746538 C78.6221871,13.7405185 78.9390114,13.6893156 79.2725107,13.6381127 C79.3225356,13.7746538 79.3725605,13.9111949 79.4392604,14.0477361 C79.4892853,14.1672096 79.5059602,14.1842772 79.6893848,14.098939 L79.9395093,13.9794655 C80.089584,13.9111949 80.106259,13.8941273 80.0562341,13.7917214 C79.8061096,13.2284892 79.5559851,12.7847306 79.2224858,12.3239042 C79.155786,12.238566 79.139111,12.238566 79.0223862,12.2897689 L78.7722618,12.4092424 C78.655537,12.4604454 78.638862,12.4945806 78.6888869,12.5628512 L79.0057113,13.0919481 C78.4554374,13.1772863 77.9051636,13.2455569 77.3382148,13.2967598 C77.8384637,12.8017982 78.2886878,12.2556337 78.8889865,11.4534545 C79.0890861,11.1803722 79.1724609,11.1121016 79.2891857,11.0438311 C79.3725605,10.9926282 79.4225854,10.9243576 79.4225854,10.8731547 C79.4225854,10.8048841 79.3725605,10.7536812 79.2891857,10.6854106 C79.122436,10.5659371 78.9223364,10.4464636 78.7055619,10.3269901 C78.6221871,10.5659371 78.5221373,10.7707488 78.3887376,10.9755605 C78.188638,11.2998457 77.9885384,11.6070633 77.7550889,11.8972132 C77.5716643,11.7094691 77.3882397,11.5046574 77.1881401,11.333981 C77.4716145,10.9926282 77.721739,10.6342077 78.0552383,10.1221784 C78.1552881,9.95150199 78.2219879,9.86616378 78.3220377,9.79789321 C78.4054125,9.74669029 78.4554374,9.69548736 78.4554374,9.62721679 C78.4554374,9.57601387 78.4387625,9.52481094 78.3220377,9.45654037 C78.1552881,9.35413452 77.9551885,9.26879631 77.6717141,9.16639046 C77.6050142,9.40533745 77.5216394,9.62721679 77.4215896,9.8320285 C77.1881401,10.2587195 76.9713655,10.5830047 76.737916,10.9072899 L76.4210917,10.6512753 C76.3210419,10.5659371 76.287692,10.5830047 76.2043171,10.6854106 L75.9708676,10.9584929 C75.8708178,11.0779664 75.8541429,11.095034 75.9375177,11.1633046 C76.4210917,11.5558603 76.8713157,11.9654837 77.3048648,12.4604454 C77.0547404,12.7505953 76.8046159,13.0578128 76.5211415,13.3479627 C76.2209921,13.3650304 76.0042176,13.3650304 75.6873932,13.3479627 C75.7207431,13.5698421 75.770768,13.8087891 75.8207929,13.9794655 C75.8541429,14.098939 75.9041678,14.1672096 75.9708676,14.1672096 C76.0208925,14.1672096 76.0709174,14.1330743 76.1376173,14.0818713 C76.1876422,14.0477361 76.3377169,14.0136008 76.7212411,13.9623979 C77.0047155,13.9453302 77.2881899,13.9111949 77.5883392,13.8770596 L77.5883392,15.7032973 C77.5883392,16.5054765 77.5549893,16.7956264 77.5549893,16.8980323 C77.5549893,17.0175058 77.5716643,17.0345734 77.6717141,17.0345734 L78.2219879,17.0345734 Z M73.4576271,10.1738789 L74.3200461,10.1733813 C75.0370696,10.1733813 75.2038192,10.2075166 75.2871941,10.2075166 C75.4039188,10.2075166 75.4205938,10.190449 75.4205938,10.0709755 L75.4205938,9.64428444 C75.4205938,9.52481094 75.4039188,9.5077433 75.2871941,9.5077433 C75.2038192,9.5077433 75.0370696,9.54187858 74.3200461,9.54187858 L73.6030226,9.54187858 C72.8859991,9.54187858 72.7192494,9.5077433 72.6358746,9.5077433 C72.5191499,9.5077433 72.5024749,9.52481094 72.5024749,9.64428444 L72.5024749,10.0709755 C72.5024749,10.190449 72.5191499,10.2075166 72.6358746,10.2075166 C72.7132941,10.2075166 72.8626031,10.1780836 73.4576271,10.1738789 L73.4576271,10.1738789 Z M67.7000849,11.9825514 L68.0502592,11.572928 C68.1836589,11.4022516 68.1836589,11.3851839 68.1002841,11.2998457 C67.4666354,10.6000724 66.8329868,10.0539078 66.1159633,9.55894623 C66.0325884,9.49067566 65.9825635,9.49067566 65.8658388,9.64428444 L65.5490144,10.0197726 C65.4156147,10.1733813 65.3989398,10.190449 65.5323395,10.2928548 C66.1826631,10.7707488 66.7996368,11.333981 67.4332855,12.0678896 C67.5166603,12.1532278 67.5666852,12.1532278 67.7000849,11.9825514 Z M73.3695731,11.5046574 L74.4034209,11.5046574 C75.2705191,11.5046574 75.5039686,11.5387927 75.5873434,11.5387927 C75.7040682,11.5387927 75.7207431,11.5217251 75.7207431,11.4022516 L75.7207431,10.9414252 C75.7207431,10.8219517 75.7040682,10.8048841 75.5873434,10.8048841 C75.5095269,10.8048841 75.3009787,10.8346197 74.5685352,10.8385845 L73.3695731,10.8390194 C72.469125,10.8390194 72.2523504,10.8048841 72.1523006,10.8048841 C72.0355759,10.8048841 72.0189009,10.8219517 72.0189009,10.9414252 L72.0189009,11.4022516 C72.0189009,11.5217251 72.0355759,11.5387927 72.1523006,11.5387927 C72.2523504,11.5387927 72.469125,11.5046574 73.3695731,11.5046574 Z M73.6030226,12.7676629 L74.2700212,12.7676629 C74.9703697,12.7676629 75.1204444,12.8017982 75.2038192,12.8017982 C75.320544,12.8017982 75.337219,12.7847306 75.337219,12.6652571 L75.337219,12.2556337 C75.337219,12.1361602 75.320544,12.1190925 75.2038192,12.1190925 C75.1263998,12.1190925 74.9914687,12.1485255 74.4118495,12.1527302 L73.6030226,12.1532278 C72.902674,12.1532278 72.7525994,12.1190925 72.6692245,12.1190925 C72.5524998,12.1190925 72.5358248,12.1361602 72.5358248,12.2556337 L72.5358248,12.6652571 C72.5358248,12.7847306 72.5524998,12.8017982 72.6692245,12.8017982 C72.7525994,12.8017982 72.902674,12.7676629 73.6030226,12.7676629 Z M73.6030226,14.0306684 L74.2700212,14.0306684 C74.9703697,14.0306684 75.1204444,14.0648037 75.2038192,14.0648037 C75.320544,14.0648037 75.337219,14.0477361 75.337219,13.9282626 L75.337219,13.5186392 C75.337219,13.3991657 75.320544,13.382098 75.2038192,13.382098 C75.1204444,13.382098 74.9703697,13.4162333 74.2700212,13.4162333 L73.6030226,13.4162333 C72.902674,13.4162333 72.7692743,13.382098 72.6692245,13.382098 C72.5524998,13.382098 72.5358248,13.3991657 72.5358248,13.5186392 L72.5358248,13.9282626 C72.5358248,14.0477361 72.5524998,14.0648037 72.6692245,14.0648037 C72.7692743,14.0648037 72.902674,14.0306684 73.6030226,14.0306684 Z M67.183161,16.1299884 L67.5333353,15.669162 C67.65006,15.5155533 67.666735,15.481418 67.5666852,15.3790121 C66.8663367,14.7133741 66.3160628,14.286683 65.5156645,13.7917214 C65.3822648,13.7063832 65.3489149,13.7234509 65.26554,13.8429244 L64.9487157,14.2696154 C64.8319909,14.4232242 64.8319909,14.4573595 64.9487157,14.52563 C65.7157641,15.0205917 66.2827129,15.4643503 66.9497115,16.1811913 C67.0497613,16.2835972 67.0831112,16.2494619 67.183161,16.1299884 Z M71.6020268,16.1982589 L71.9355261,16.1129207 C72.0856008,16.0787855 72.0856008,16.0446502 72.0689258,15.9422443 C71.952201,15.3790121 71.8021264,14.8669829 71.6020268,14.4402918 C71.5520019,14.337886 71.5353269,14.337886 71.4019272,14.3720213 L71.1351277,14.4402918 C70.9850531,14.4744271 70.9683781,14.5085624 71.001728,14.5939006 C71.1851526,15.0717946 71.3185524,15.5496886 71.4019272,16.1129207 C71.4186022,16.2323942 71.4519521,16.2323942 71.6020268,16.1982589 Z M68.7339328,16.5908147 C68.9173574,16.1811913 69.0507571,15.8398385 69.2175068,15.2766063 C69.3175566,15.003524 69.3509065,14.9011182 69.4176063,14.8328476 C69.4676312,14.7816447 69.5009812,14.7475094 69.5009812,14.6792388 C69.5009812,14.6280359 69.4509563,14.576833 69.3008816,14.52563 C69.1508069,14.4744271 68.9840572,14.4232242 68.7005828,14.3720213 C68.6839079,14.6451035 68.633883,14.8840505 68.5671831,15.0888622 C68.4004335,15.6350268 68.2170089,16.0787855 67.9835593,16.5054765 C68.150309,16.5566794 68.3003837,16.62495 68.4337834,16.7102882 C68.6005331,16.8126941 68.633883,16.8126941 68.7339328,16.5908147 Z M76.4210917,16.5737471 C76.6045163,16.1641237 76.737916,15.8398385 76.9046657,15.2766063 C77.0047155,15.003524 77.0380654,14.9011182 77.1047653,14.8328476 C77.1547901,14.7816447 77.1881401,14.7475094 77.1881401,14.6792388 C77.1881401,14.6280359 77.1381152,14.576833 76.9880405,14.52563 C76.8379658,14.4744271 76.6712162,14.4232242 76.3877418,14.3720213 C76.3710668,14.6451035 76.3210419,14.8840505 76.254342,15.0888622 C76.0875924,15.6350268 75.9041678,16.0617178 75.6707183,16.4884089 C75.8374679,16.5396118 75.9875426,16.6078824 76.1209423,16.6932206 C76.287692,16.7956264 76.3210419,16.7956264 76.4210917,16.5737471 Z M79.5059602,16.5396118 C79.5559851,16.5396118 79.60601,16.5054765 79.6893848,16.4372059 C79.8061096,16.3518677 79.9895342,16.2835972 80.1229339,16.2323942 C79.7894346,15.6520944 79.5226352,15.0205917 79.3725605,14.4744271 C79.3392106,14.3720213 79.3225356,14.3720213 79.2058109,14.4061565 L78.9056615,14.4914948 C78.7389118,14.5426977 78.7222369,14.5597653 78.7555868,14.6792388 C78.9223364,15.3107416 79.122436,15.8569061 79.3725605,16.3689354 C79.4225854,16.4884089 79.4559353,16.5396118 79.5059602,16.5396118 Z M73.5863476,16.8980323 L74.2700212,16.8980323 C74.9870447,16.8980323 75.1537943,16.9321676 75.2538441,16.9321676 C75.3705689,16.9321676 75.3872438,16.9150999 75.3872438,16.7956264 C75.3872438,16.6932206 75.3538939,16.5737471 75.3538939,16.0105149 L75.3538939,15.5838238 C75.3538939,15.0205917 75.3872438,14.9011182 75.3872438,14.8157799 C75.3872438,14.6792388 75.3705689,14.6621712 75.2538441,14.6621712 C75.1537943,14.6621712 74.9870447,14.6963065 74.2700212,14.6963065 L73.5863476,14.6963065 C72.8859991,14.6963065 72.7192494,14.6621712 72.6191996,14.6621712 C72.5024749,14.6621712 72.4857999,14.6792388 72.4857999,14.8157799 C72.4857999,14.9011182 72.5191499,15.0205917 72.5191499,15.5838238 L72.5191499,16.0105149 C72.5191499,16.5737471 72.4857999,16.6932206 72.4857999,16.7956264 C72.4857999,16.9150999 72.5024749,16.9321676 72.6191996,16.9321676 C72.7192494,16.9321676 72.8859991,16.8980323 73.5863476,16.8980323 Z M74.7202452,16.3177324 L73.1527985,16.3177324 L73.1527985,15.2766063 L74.7202452,15.2766063 L74.7202452,16.3177324 Z M77.204815,24.3736594 C78.1219381,24.3736594 78.6221871,24.1859154 78.8889865,23.7421567 C79.0724111,23.4178715 79.2391608,22.8034364 79.3225356,22.2060689 L79.4392604,21.3697545 C79.4559353,21.250281 79.4059104,21.199078 79.2891857,21.199078 C79.1978359,21.199078 78.7311575,21.2275349 77.3687675,21.2324839 L69.9512052,21.2332133 C70.051255,20.9259958 70.1346298,20.6187782 70.2346796,20.2603577 L76.0375675,20.2603577 C77.6550391,20.2603577 78.3053627,20.294493 78.3720626,20.294493 C78.4887874,20.294493 78.5054623,20.2774254 78.5054623,20.1579519 C78.5054623,20.055546 78.4721124,19.816599 78.4721124,19.2192316 L78.4721124,18.7754729 C78.4721124,18.1781054 78.5054623,17.9732937 78.5054623,17.8879555 C78.5054623,17.768482 78.4887874,17.7514144 78.3720626,17.7514144 L78.3391136,17.7522094 C78.1951276,17.7568257 77.6371113,17.7801383 76.4550054,17.7847546 L71.0831841,17.7848202 C69.7589861,17.7798712 69.2936316,17.7514144 69.2175068,17.7514144 C69.100782,17.7514144 69.084107,17.768482 69.084107,17.8879555 L69.084107,18.43412 C69.084107,18.5706612 69.100782,18.5877288 69.2175068,18.5877288 C69.2972566,18.5877288 69.8041881,18.5564973 71.2782485,18.5537815 L77.5716643,18.5535935 L77.5716643,19.5093815 L71.6187017,19.5093815 C70.0846049,19.5093815 69.601031,19.4752462 69.5176561,19.4752462 C69.3842564,19.4752462 69.3675814,19.5093815 69.3509065,19.628855 C69.3175566,19.9531402 69.2675317,20.2091548 69.1841568,20.5163724 C68.9673823,21.2332133 68.7672827,21.7793779 68.5338332,22.3084748 C68.4504584,22.5132865 68.4504584,22.5474218 68.6672329,22.581557 L69.2175068,22.6839629 C69.4009314,22.7180982 69.4342813,22.7010305 69.5009812,22.5474218 L69.7010807,22.0012572 L78.3720626,22.0012572 C78.3220377,22.4620835 78.2386629,22.871707 78.1219381,23.0935863 C77.9718634,23.4178715 77.705064,23.537345 77.1381152,23.537345 C76.6545412,23.537345 76.1209423,23.5202773 75.1871443,23.4178715 C75.2871941,23.5714803 75.3705689,23.776292 75.4205938,24.015239 C75.4872936,24.3053889 75.4872936,24.3053889 75.8207929,24.3395242 C76.4377666,24.3736594 76.8212908,24.3736594 77.204815,24.3736594 Z M65.9158637,24.1688477 C65.9992385,24.1688477 66.0659384,24.0835095 66.0826133,23.964036 C66.0992883,23.8274949 66.216013,23.5714803 66.3994377,23.2301274 C66.9663865,22.0865954 67.4332855,20.9430634 67.9335344,19.5435168 C68.0502592,19.2362992 68.0002343,19.2192316 67.7334349,19.0144199 C67.5166603,18.8437435 67.3665856,18.6901347 67.2498609,18.5194583 C66.732937,20.1920872 66.3160628,21.1308075 65.782464,22.2060689 C65.5490144,22.6668953 65.2488651,23.1447892 64.9653907,23.4861421 C65.2155151,23.7250891 65.4656396,23.9128331 65.6824142,24.0664419 C65.765789,24.1347125 65.8658388,24.1688477 65.9158637,24.1688477 Z M85.0325868,11.6584714 L94.880278,11.6582662 C96.4810747,11.6582662 96.9979986,11.6924015 97.0980484,11.6924015 C97.2147732,11.6924015 97.2314481,11.6753338 97.2314481,11.5558603 L97.2314481,10.8219517 C97.2314481,10.7024782 97.2147732,10.6854106 97.0980484,10.6854106 L97.0599252,10.6862056 C96.9115419,10.690822 96.4435028,10.7141345 95.2904872,10.7187508 L90.4280624,10.7195459 L90.4280624,10.5488695 C90.4280624,10.0539078 90.4447373,9.76375793 90.4947622,9.64428444 C90.5447871,9.52481094 90.611487,9.43947273 90.611487,9.31999924 C90.611487,9.25172867 90.5281122,9.1834581 90.3947124,9.16639046 C90.111238,9.13225518 89.7110389,9.09811989 89.3108397,9.08105225 C89.4108895,9.49067566 89.4275645,9.95150199 89.4275645,10.5488695 L89.4275645,10.7195459 L84.83571,10.7187508 C83.5647294,10.7136216 83.1168481,10.6854106 83.0410528,10.6854106 C82.9243281,10.6854106 82.9076531,10.7024782 82.9076531,10.8219517 L82.9076531,11.5558603 C82.9076531,11.6753338 82.9243281,11.6924015 83.0410528,11.6924015 C83.1206379,11.6924015 83.6104478,11.6612989 85.0325868,11.6584714 Z M88.1335522,16.1302132 L91.7954095,16.1299884 C93.3128313,16.1299884 93.8464302,16.1641237 93.929805,16.1641237 C94.0465298,16.1641237 94.0632048,16.147056 94.0632048,16.0446502 C94.0632048,15.9422443 94.0298548,15.720365 94.0298548,14.9352534 L94.0298548,13.9794655 C94.0298548,13.194354 94.0632048,12.9724746 94.0632048,12.8700688 C94.0632048,12.7505953 94.0465298,12.7335276 93.929805,12.7335276 C93.8543707,12.7335276 93.4103855,12.7614706 92.2026488,12.766793 L87.9364524,12.766793 C86.7287157,12.7614706 86.2847306,12.7335276 86.2092962,12.7335276 C86.0925714,12.7335276 86.0758965,12.7505953 86.0758965,12.8700688 C86.0758965,12.9724746 86.1092464,13.194354 86.1092464,13.9794655 L86.1092464,14.9352534 C86.1092464,15.720365 86.0758965,15.9422443 86.0758965,16.0446502 C86.0758965,16.147056 86.0925714,16.1641237 86.2092962,16.1641237 C86.2887008,16.1641237 86.7764719,16.133162 88.1335522,16.1302132 Z M93.0460319,15.3107416 L87.0763944,15.3107416 L87.0763944,13.5869097 L93.0460319,13.5869097 L93.0460319,15.3107416 Z M84.5584747,24.4589977 C84.6751994,24.4589977 84.6918744,24.44193 84.6918744,24.3224565 C84.6918744,24.2416098 84.6619426,23.7318499 84.6587919,22.4739107 L84.6585244,18.2122407 L95.4805768,18.2122407 L95.4805768,22.7180982 C95.4805768,23.1789245 95.2638022,23.3325333 94.9469779,23.3325333 C94.5467787,23.3325333 94.0798797,23.3154656 93.5963057,23.2642627 C93.7130305,23.4520068 93.8130803,23.7080214 93.8797801,23.964036 C93.94648,24.2883212 93.963155,24.3053889 94.2799793,24.3053889 C95.4805768,24.3224565 95.847426,24.254186 96.1309004,23.9981713 C96.4310498,23.7421567 96.4977497,23.3837362 96.4977497,22.9570452 C96.4977497,22.2914071 96.4810747,21.5745662 96.4810747,20.7553194 L96.4810747,19.3045698 C96.4810747,18.0244966 96.5144246,17.4953997 96.5144246,17.3929939 C96.5144246,17.2735204 96.4977497,17.2564527 96.3810249,17.2564527 C96.2853251,17.2564527 95.7624436,17.2876843 94.243247,17.2904001 L86.0925714,17.290588 C84.4250749,17.290588 83.8581261,17.2564527 83.7580763,17.2564527 C83.6413516,17.2564527 83.6246766,17.2735204 83.6246766,17.3929939 C83.6246766,17.4897105 83.6544239,17.8909055 83.6577292,19.0135448 L83.6580265,22.2743395 C83.6580265,23.7421567 83.6246766,24.2371183 83.6246766,24.3224565 C83.6246766,24.44193 83.6413516,24.4589977 83.7580763,24.4589977 L84.5584747,24.4589977 Z M87.8434428,23.2642627 C87.9601675,23.2642627 87.9768425,23.2471951 87.9768425,23.1277216 L87.9768425,22.4791512 L91.9955091,22.4791512 L91.9955091,22.9911804 C91.9955091,23.1106539 92.012184,23.1277216 92.1455838,23.1277216 L92.8459323,23.1277216 C92.9626571,23.1277216 92.979332,23.1106539 92.979332,22.9911804 C92.979332,22.9288465 92.9515299,22.7242283 92.9466948,21.5069184 L92.9459821,20.3115607 C92.9459821,19.816599 92.979332,19.5435168 92.979332,19.4581786 C92.979332,19.3387051 92.9626571,19.3216374 92.8459323,19.3216374 C92.7514408,19.3216374 92.3892235,19.3520853 91.2816708,19.3554683 L88.9106405,19.3557727 C87.6433432,19.3557727 87.243144,19.3216374 87.1430942,19.3216374 C87.0263695,19.3216374 87.0096945,19.3387051 87.0096945,19.4581786 C87.0096945,19.5435168 87.0430445,19.8336667 87.0430445,20.4651694 L87.0430445,21.199078 C87.0430445,22.7863687 87.0096945,23.0253157 87.0096945,23.1277216 C87.0096945,23.2471951 87.0263695,23.2642627 87.1430942,23.2642627 L87.8434428,23.2642627 Z M91.9955091,21.7111073 L87.9768425,21.7111073 L87.9768425,20.1238166 L91.9955091,20.1238166 L91.9955091,21.7111073 Z M102.384012,23.3154656 L112.722491,23.3154656 C114.273262,23.3154656 114.773511,23.3496009 114.856886,23.3496009 C114.973611,23.3496009 114.990286,23.3325333 114.990286,23.2130598 L114.990286,22.4620835 C114.990286,22.3426101 114.973611,22.3255424 114.856886,22.3255424 C114.773511,22.3255424 114.356637,22.3596777 113.239415,22.3596777 L113.239415,15.1229975 C113.239415,13.5015715 113.272765,12.7676629 113.272765,12.6823247 C113.272765,12.5628512 113.25609,12.5457836 113.139365,12.5457836 C113.043665,12.5457836 112.505527,12.5770151 110.985004,12.5797309 L106.719503,12.5799189 C107.119702,11.8289426 107.519902,10.9243576 107.736676,10.3952607 C107.803376,10.2245843 107.903426,10.0539078 108.003476,9.95150199 C108.070175,9.88323142 108.1202,9.81496085 108.1202,9.69548736 C108.1202,9.62721679 108.070175,9.54187858 107.970126,9.5077433 C107.703326,9.42240509 107.303127,9.33706688 106.886253,9.26879631 C106.852903,9.61014915 106.736178,10.0539078 106.602779,10.4123283 C106.319304,11.1803722 106.052505,11.811875 105.635631,12.5799189 L104.318308,12.5799189 C102.634137,12.5799189 102.050513,12.5457836 101.950463,12.5457836 C101.833738,12.5457836 101.817064,12.5628512 101.817064,12.6823247 L101.817913,12.7285535 C101.823113,12.9294765 101.850413,13.655993 101.850413,15.1229975 L101.850413,22.3596777 C100.749866,22.3596777 100.316317,22.3255424 100.249617,22.3255424 C100.132892,22.3255424 100.116217,22.3426101 100.116217,22.4620835 L100.116217,23.2130598 C100.116217,23.3325333 100.132892,23.3496009 100.249617,23.3496009 L100.28574,23.3487311 C100.440679,23.3434086 100.99602,23.3154656 102.384012,23.3154656 Z M112.205567,22.3596777 L109.720997,22.3596777 L109.720997,13.5186392 L112.205567,13.5186392 L112.205567,22.3596777 Z M108.720499,22.3596777 L106.285954,22.3596777 L106.285954,13.5186392 L108.720499,13.5186392 L108.720499,22.3596777 Z M105.285456,22.3596777 L102.884261,22.3596777 L102.884261,13.5186392 L105.285456,13.5186392 L105.285456,22.3596777 Z M118.141854,20.3627636 C118.208554,20.3627636 118.258579,20.2774254 118.341954,20.1408842 C119.058977,18.8608111 119.359127,17.7172791 119.525876,16.2665295 C119.725976,14.4744271 119.776001,13.2626245 119.776001,11.5387927 L119.776001,10.5830047 L129.94773,10.5830047 C131.581876,10.5830047 132.13215,10.61714 132.215525,10.61714 C132.348925,10.61714 132.3656,10.6000724 132.3656,10.4805989 L132.3656,9.88323142 C132.3656,9.76375793 132.348925,9.74669029 132.215525,9.74669029 C132.135775,9.74669029 131.628844,9.77792181 130.154783,9.7806376 L121.243398,9.78082557 C119.609251,9.78082557 119.042302,9.74669029 118.958928,9.74669029 C118.825528,9.74669029 118.808853,9.76375793 118.808853,9.88323142 C118.808853,9.98563727 118.842203,10.4123283 118.842203,11.3851839 C118.842203,12.9895423 118.792178,14.2354801 118.625428,15.8569061 C118.442004,17.4271292 118.108504,18.4682553 117.358131,19.6971256 C117.558231,19.7824638 117.72498,19.9360725 117.92508,20.1750195 C118.02513,20.294493 118.091829,20.3627636 118.141854,20.3627636 Z M131.9654,19.9531402 C132.015425,19.9531402 132.082125,19.8848696 132.182175,19.7312608 C132.33225,19.5264491 132.482324,19.389908 132.699099,19.2533669 C131.315077,18.0586319 130.281229,16.8297617 129.68093,14.4744271 L130.397954,14.4744271 C131.615226,14.4744271 131.99875,14.5085624 132.082125,14.5085624 C132.19885,14.5085624 132.215525,14.4914948 132.215525,14.3720213 L132.215525,13.7575861 C132.215525,13.6381127 132.19885,13.621045 132.082125,13.621045 C132.003382,13.621045 131.656914,13.6514928 130.593204,13.6548759 L129.530856,13.6551803 C129.564205,13.2455569 129.564205,12.9383393 129.564205,12.5457836 C129.564205,11.9142808 129.61423,11.6753338 129.68093,11.5217251 C129.730955,11.4193192 129.764305,11.3510486 129.764305,11.2657104 C129.764305,11.1974399 129.71428,11.1291693 129.564205,11.1121016 C129.280731,11.0608987 128.997257,11.0267634 128.613732,11.0096958 C128.697107,11.4193192 128.713782,11.6582662 128.713782,12.4433777 C128.713782,12.8700688 128.713782,13.2626245 128.680432,13.6551803 L128.480333,13.6551803 C127.246385,13.6551803 126.879536,13.621045 126.779486,13.621045 C126.662762,13.621045 126.646087,13.6381127 126.646087,13.7575861 L126.646087,14.3720213 C126.646087,14.4914948 126.662762,14.5085624 126.779486,14.5085624 C126.879536,14.5085624 127.246385,14.4744271 128.480333,14.4744271 L128.597057,14.4744271 C128.547033,14.8840505 128.480333,15.3278092 128.363608,15.8057032 C128.030109,17.2223175 127.246385,18.5194583 126.112488,19.3728404 C126.312587,19.4581786 126.496012,19.5947197 126.646087,19.7483285 C126.779486,19.8848696 126.846186,19.9531402 126.912886,19.9531402 C126.979586,19.9531402 127.029611,19.9019373 127.146336,19.7824638 C128.146833,18.7754729 128.980582,17.4612645 129.264056,15.4472827 C129.764305,17.5466027 130.664753,18.7072023 131.731951,19.7824638 C131.848676,19.9019373 131.898701,19.9531402 131.9654,19.9531402 Z M122.560394,14.3040911 L124.261567,14.3037507 C125.345439,14.3037507 125.695614,14.337886 125.778988,14.337886 C125.895713,14.337886 125.912388,14.3208183 125.912388,14.2184125 C125.912388,14.1160066 125.879038,13.9111949 125.879038,13.194354 L125.879038,12.3751071 C125.879038,11.6924015 125.912388,11.5046574 125.912388,11.4022516 C125.912388,11.2827781 125.895713,11.2657104 125.778988,11.2657104 C125.700518,11.2657104 125.385713,11.2959479 124.445317,11.2995053 L122.744145,11.2998457 C121.660272,11.2998457 121.310098,11.2657104 121.226723,11.2657104 C121.109998,11.2657104 121.093323,11.2827781 121.093323,11.4022516 C121.093323,11.5046574 121.126673,11.6924015 121.126673,12.3751071 L121.126673,13.194354 C121.126673,13.9111949 121.093323,14.1160066 121.093323,14.2184125 C121.093323,14.3208183 121.109998,14.337886 121.226723,14.337886 C121.305193,14.337886 121.619998,14.3076485 122.560394,14.3040911 L122.560394,14.3040911 Z M131.765301,13.143151 L132.115475,12.9212717 C132.26555,12.8359335 132.282225,12.7847306 132.215525,12.6823247 C131.93205,12.238566 131.565201,11.7948073 131.148327,11.3851839 C131.048277,11.2827781 131.031602,11.2827781 130.881528,11.3681163 L130.581378,11.5387927 C130.414629,11.6411985 130.414629,11.6924015 130.514678,11.7948073 C130.881528,12.1873631 131.231702,12.6652571 131.498501,13.1090158 C131.565201,13.2284892 131.598551,13.2455569 131.765301,13.143151 Z M125.028615,12.5116483 L121.977096,12.5116483 L121.977096,11.8630779 L125.028615,11.8630779 L125.028615,12.5116483 Z M125.028615,13.7405185 L121.977096,13.7405185 L121.977096,13.0578128 L125.028615,13.0578128 L125.028615,13.7405185 Z M121.560222,19.7995314 C121.693622,19.7995314 121.710297,19.7824638 121.710297,19.6629903 C121.710297,19.5833413 121.681245,19.2509395 121.677372,18.402129 L121.676947,18.0586319 L125.21204,18.0586319 L125.21204,18.3487818 C125.21204,18.8096082 125.095315,18.9632169 124.661766,18.9632169 C124.378291,18.9632169 124.211542,18.9461493 123.894717,18.912014 C123.994767,19.0656228 124.078142,19.2875021 124.128167,19.4581786 C124.194867,19.7141932 124.194867,19.7141932 124.478341,19.7141932 C125.262064,19.6971256 125.528864,19.628855 125.745638,19.4752462 C126.045788,19.2533669 126.095813,18.9290817 126.095813,18.485323 C126.095813,18.0586319 126.079138,17.6319409 126.079138,16.8468293 L126.079138,16.3518677 C126.079138,15.4472827 126.112488,15.0888622 126.112488,15.003524 C126.112488,14.8840505 126.095813,14.8669829 125.979088,14.8669829 C125.900618,14.8669829 125.556271,14.8972204 124.528987,14.9007777 L122.544045,14.9011182 C121.360123,14.9011182 120.976598,14.8669829 120.893224,14.8669829 C120.793174,14.8669829 120.776499,14.8840505 120.776499,15.003524 C120.776499,15.0835286 120.80581,15.388546 120.809474,16.2701589 L120.809849,18.2293083 C120.809849,19.2704345 120.776499,19.5776521 120.776499,19.6629903 C120.776499,19.7824638 120.793174,19.7995314 120.893224,19.7995314 L121.560222,19.7995314 Z M125.21204,16.2323942 L121.676947,16.2323942 L121.676947,15.4984856 L125.21204,15.4984856 L125.21204,16.2323942 Z M125.21204,17.5124674 L121.676947,17.5124674 L121.676947,16.7785588 L125.21204,16.7785588 L125.21204,17.5124674 Z M120.068959,24.0837147 L130.097804,24.0835095 C131.665251,24.0835095 132.182175,24.1176448 132.282225,24.1176448 C132.382275,24.1176448 132.39895,24.1005772 132.39895,23.9811037 L132.39895,23.3154656 C132.39895,23.1959922 132.382275,23.1789245 132.282225,23.1789245 C132.19127,23.1789245 131.755792,23.2071355 130.49972,23.2122648 L125.612239,23.2130598 L125.612239,21.9329866 L128.213533,21.9329866 C129.91438,21.9329866 130.464654,21.9671219 130.564703,21.9671219 C130.681428,21.9671219 130.698103,21.9500543 130.698103,21.8305808 L130.698103,21.199078 C130.698103,21.0796045 130.681428,21.0625369 130.564703,21.0625369 C130.473354,21.0625369 130.006675,21.0909937 128.631593,21.0959427 L125.612239,21.0966722 C125.612239,20.772387 125.678939,20.5846429 125.728963,20.4822371 C125.762313,20.4139665 125.778988,20.3627636 125.778988,20.294493 C125.778988,20.2091548 125.712289,20.1579519 125.595564,20.1408842 C125.262064,20.0896813 124.961915,20.055546 124.528366,20.0384784 C124.611741,20.3286283 124.628416,20.6699811 124.628416,21.0966722 L121.779449,21.0959427 C120.414756,21.0909937 119.935501,21.0625369 119.859376,21.0625369 C119.742651,21.0625369 119.725976,21.0796045 119.725976,21.199078 L119.725976,21.8305808 C119.725976,21.9500543 119.742651,21.9671219 119.859376,21.9671219 C119.939126,21.9671219 120.461314,21.9358904 121.98048,21.9331746 L124.628416,21.9329866 L124.628416,23.2130598 L119.874334,23.2122648 C118.618262,23.2071355 118.182784,23.1789245 118.091829,23.1789245 C117.975105,23.1789245 117.95843,23.1959922 117.95843,23.3154656 L117.95843,23.9811037 C117.95843,24.1005772 117.975105,24.1176448 118.091829,24.1176448 C118.187332,24.1176448 118.662671,24.0865422 120.068959,24.0837147 L120.068959,24.0837147 Z M136.584366,18.4682553 C136.701091,18.4682553 136.717765,18.4511877 136.717765,18.3317142 L136.717765,16.6761529 L148.490291,16.6761529 L148.490291,18.3317142 C148.490291,18.4511877 148.506966,18.4682553 148.623691,18.4682553 L149.357389,18.4682553 C149.490789,18.4682553 149.507464,18.4511877 149.507464,18.3317142 C149.507464,18.246376 149.474114,18.1098348 149.474114,16.9492352 L149.474114,16.5054765 C149.474114,16.1982589 149.507464,16.0275825 149.507464,15.9251767 C149.507464,15.8227708 149.490789,15.8057032 149.357389,15.8057032 C149.307364,15.8057032 149.02389,15.8227708 148.423591,15.8398385 L148.640366,11.9484161 C148.673715,11.2998457 148.707065,10.668343 148.79044,10.0368402 C148.79044,9.91736671 148.75709,9.88323142 148.640366,9.88323142 C148.546986,9.88323142 148.351926,9.91296705 147.607792,9.9169318 L146.489295,9.91736671 C145.605522,9.91736671 145.388747,9.88323142 145.305373,9.88323142 C145.171973,9.88323142 145.155298,9.90029906 145.155298,10.0197726 L145.155298,10.6342077 C145.155298,10.7536812 145.171973,10.7707488 145.305373,10.7707488 C145.383189,10.7707488 145.577211,10.7410132 146.321276,10.7370484 L147.839967,10.7366135 L147.756592,11.9142808 L146.422595,11.9142808 C145.705572,11.9142808 145.522147,11.8801455 145.438772,11.8801455 C145.322047,11.8801455 145.305373,11.8972132 145.305373,12.0337543 L145.305373,12.5799189 C145.305373,12.6823247 145.322047,12.6993923 145.438772,12.6993923 C145.516192,12.6993923 145.679879,12.6699594 146.276957,12.6657547 L147.723242,12.6652571 L147.639868,13.8429244 L146.40592,13.8429244 C145.688897,13.8429244 145.505472,13.8087891 145.422097,13.8087891 C145.305373,13.8087891 145.288698,13.8258567 145.288698,13.9453302 L145.288698,14.5085624 C145.288698,14.6109682 145.305373,14.6280359 145.422097,14.6280359 C145.505472,14.6280359 145.688897,14.5939006 146.40592,14.5939006 L147.589843,14.5939006 L147.523143,15.8398385 L137.701588,15.8398385 L137.651564,14.5597653 L138.852161,14.5597653 C139.55251,14.5597653 139.719259,14.5939006 139.819309,14.5939006 C139.936034,14.5939006 139.952709,14.576833 139.952709,14.4744271 L139.952709,13.9111949 C139.952709,13.7917214 139.936034,13.7746538 139.819309,13.7746538 C139.719259,13.7746538 139.55251,13.8087891 138.852161,13.8087891 L137.618214,13.8087891 L137.584864,12.6652571 L138.818811,12.6652571 C139.55251,12.6652571 139.719259,12.6993923 139.819309,12.6993923 C139.936034,12.6993923 139.952709,12.6823247 139.952709,12.5799189 L139.952709,12.0166867 C139.952709,11.8972132 139.936034,11.8801455 139.819309,11.8801455 C139.719259,11.8801455 139.55251,11.9142808 138.818811,11.9142808 L137.551514,11.9142808 L137.518164,11.0608987 C138.118463,10.9072899 138.702086,10.7195459 139.38576,10.4635312 C139.602534,10.378193 139.819309,10.3269901 139.986059,10.3269901 C140.102783,10.3269901 140.169483,10.2587195 140.169483,10.190449 C140.169483,10.1221784 140.136133,10.0709755 140.069433,10.0027049 C139.919359,9.84909614 139.619209,9.55894623 139.369085,9.38826981 C139.21901,9.52481094 139.085611,9.62721679 138.718761,9.79789321 C138.251862,10.0027049 137.834988,10.1563137 137.301389,10.3269901 C137.00124,10.1733813 136.76779,10.1051108 136.467641,10.0539078 C136.584366,10.4805989 136.617716,10.9755605 136.651066,11.8630779 L136.817815,15.8398385 C136.184167,15.8227708 135.900692,15.8057032 135.833992,15.8057032 C135.717268,15.8057032 135.700593,15.8227708 135.700593,15.9251767 C135.700593,16.0275825 135.733943,16.1982589 135.733943,16.5737471 L135.733943,16.9492352 C135.733943,18.1098348 135.700593,18.2293083 135.700593,18.3317142 C135.700593,18.4511877 135.717268,18.4682553 135.833992,18.4682553 L136.584366,18.4682553 Z M140.853157,12.3921748 C140.903182,12.3921748 140.986557,12.3580395 141.103281,12.3068366 C141.720255,12.0337543 142.303879,11.7265368 142.820803,11.3681163 C143.237677,11.6411985 143.637876,11.9313485 144.004725,12.2214984 C144.12145,12.3239042 144.138125,12.3068366 144.2882,12.1361602 L144.538324,11.8630779 C144.655049,11.7436044 144.655049,11.7094691 144.554999,11.6411985 C144.204825,11.3851839 143.854651,11.1462369 143.487801,10.9072899 L144.104775,10.3952607 C144.2215,10.2928548 144.338225,10.2245843 144.438274,10.190449 C144.504974,10.1733813 144.554999,10.1221784 144.554999,10.0539078 C144.554999,9.98563727 144.504974,9.93443435 144.438274,9.88323142 C144.25485,9.72962265 144.05475,9.59308151 143.804626,9.45654037 C143.654551,9.69548736 143.537826,9.84909614 143.254352,10.1221784 L142.804128,10.4976665 C142.337229,10.2075166 141.87033,9.95150199 141.403431,9.712555 C141.286706,9.66135208 141.253356,9.67841972 141.153306,9.78082557 L140.886507,10.0368402 C140.753107,10.1733813 140.769782,10.2075166 140.886507,10.2587195 C141.303381,10.4805989 141.73693,10.7024782 142.137129,10.9414252 C141.620205,11.2657104 140.969882,11.572928 140.186158,11.8289426 C140.352908,11.9313485 140.486308,12.050822 140.603032,12.1873631 C140.719757,12.3239042 140.769782,12.3921748 140.853157,12.3921748 Z M140.869832,15.5326209 C140.919857,15.5326209 140.986557,15.4984856 141.119956,15.4472827 C141.73693,15.2083357 142.303879,14.8840505 142.820803,14.52563 C143.221002,14.7987123 143.621201,15.0717946 144.004725,15.3790121 C144.12145,15.481418 144.138125,15.4472827 144.2882,15.2766063 L144.554999,14.9864564 C144.655049,14.8669829 144.655049,14.8499152 144.554999,14.7816447 C144.2215,14.5426977 143.837976,14.286683 143.471126,14.0477361 C143.671226,13.8770596 143.888,13.7063832 144.0881,13.5186392 C144.204825,13.4162333 144.32155,13.3650304 144.421599,13.3308951 C144.521649,13.2967598 144.554999,13.2455569 144.554999,13.1772863 C144.554999,13.1260834 144.504974,13.0578128 144.438274,13.0066099 C144.271525,12.8700688 144.071425,12.7335276 143.821301,12.5969865 C143.671226,12.8530011 143.571176,12.9895423 143.287702,13.2455569 C143.137627,13.382098 142.987552,13.5186392 142.804128,13.6551803 C142.337229,13.3650304 141.853655,13.0919481 141.386756,12.8530011 C141.270031,12.8017982 141.253356,12.8188658 141.136631,12.9383393 L140.886507,13.2114216 C140.786457,13.3308951 140.803132,13.3650304 140.919857,13.4162333 C141.336731,13.6381127 141.753605,13.859992 142.137129,14.098939 C141.620205,14.4061565 140.986557,14.7133741 140.202833,14.9693887 C140.352908,15.0547269 140.502983,15.1742004 140.636382,15.3448769 C140.736432,15.4643503 140.786457,15.5326209 140.869832,15.5326209 Z M142.687403,24.2371183 C143.037577,23.9981713 143.137627,23.7080214 143.137627,23.1277216 C143.137627,22.7522335 143.120952,22.0865954 143.120952,21.7281749 L143.120952,21.3356192 L147.623193,21.3356192 C149.173964,21.3356192 149.690888,21.3697545 149.774263,21.3697545 C149.890988,21.3697545 149.907663,21.3526868 149.907663,21.2332133 L149.907663,20.53344 C149.907663,20.4139665 149.890988,20.3968989 149.774263,20.3968989 C149.694678,20.3968989 149.220062,20.4280015 147.82831,20.430829 L143.120952,20.4310342 L143.120952,20.2091548 C144.1548,19.7995314 145.038573,19.3728404 145.722247,18.9461493 C146.122446,18.7072023 146.205821,18.6559994 146.37257,18.6047965 C146.489295,18.5706612 146.53932,18.5023906 146.53932,18.3999848 C146.53932,18.2975789 146.47262,18.1951731 146.205821,17.8879555 C145.972371,17.6319409 145.855646,17.5636703 145.772272,17.5636703 C145.705572,17.5636703 145.672222,17.5807379 145.588847,17.6148732 C145.547159,17.6290963 145.447573,17.6314668 145.290087,17.6318619 L140.134818,17.6315434 C138.881377,17.6289787 138.461057,17.6148732 138.385262,17.6148732 C138.268537,17.6148732 138.251862,17.6319409 138.251862,17.7343467 L138.251862,18.3487818 C138.251862,18.4682553 138.268537,18.485323 138.385262,18.485323 C138.464847,18.485323 138.92427,18.4542204 140.329144,18.4513929 L145.021898,18.4511877 C144.421599,18.8266758 143.671226,19.2021639 142.887503,19.5093815 L142.053754,19.3557727 C142.120454,19.7141932 142.137129,20.0214107 142.153804,20.4310342 L137.551514,20.4310342 C136.000742,20.4310342 135.483818,20.3968989 135.400443,20.3968989 C135.283718,20.3968989 135.267044,20.4139665 135.267044,20.53344 L135.267044,21.2332133 C135.267044,21.3526868 135.283718,21.3697545 135.400443,21.3697545 L135.434382,21.3689594 C135.586348,21.3638302 136.141721,21.3356192 137.551514,21.3356192 L142.153804,21.3356192 L142.153804,22.9399775 C142.153804,23.4349391 141.953705,23.5714803 141.420106,23.5714803 C140.786457,23.5714803 140.336233,23.5544126 139.719259,23.4861421 C139.869334,23.7250891 139.952709,23.9128331 140.036084,24.1859154 C140.111879,24.4807201 140.118769,24.5075205 140.369959,24.5099569 L140.452958,24.5102006 C141.90368,24.5102006 142.353904,24.4589977 142.687403,24.2371183 Z M153.159281,14.2013448 C155.677201,13.2967598 158.161771,11.811875 159.912642,10.0880431 C161.613488,11.7948073 164.198108,13.0919481 167.066202,14.0306684 C167.383026,14.1330743 167.383026,14.1160066 167.516426,13.8087891 C167.633151,13.5527744 167.783225,13.3138275 168,13.143151 C164.798407,12.3580395 162.330512,11.1121016 160.562966,9.49067566 L160.67969,9.43947273 C160.763065,9.40533745 160.796415,9.35413452 160.796415,9.28586395 C160.796415,9.21759339 160.729715,9.13225518 160.579641,9.09811989 C160.329516,9.02984932 159.979342,8.92744347 159.562468,8.84210526 C159.379043,9.1834581 159.112244,9.5077433 158.762069,9.84909614 C157.428072,11.1462369 154.976852,12.6140541 152.208808,13.4674362 C152.425583,13.621045 152.575657,13.8087891 152.692382,14.0136008 C152.842457,14.286683 152.842457,14.3208183 153.159281,14.2013448 Z M159.000943,13.0922886 L160.77974,13.0919481 C161.930313,13.0919481 162.263812,13.1260834 162.347187,13.1260834 C162.463912,13.1260834 162.480587,13.1090158 162.480587,12.9895423 L162.480587,12.4092424 C162.480587,12.3068366 162.463912,12.2897689 162.347187,12.2897689 C162.268716,12.2897689 161.968682,12.3200064 160.974416,12.3235638 L159.195618,12.3239042 C158.045046,12.3239042 157.711547,12.2897689 157.628172,12.2897689 C157.511447,12.2897689 157.494772,12.3068366 157.494772,12.4092424 L157.494772,12.9895423 C157.494772,13.1090158 157.511447,13.1260834 157.628172,13.1260834 C157.706642,13.1260834 158.006676,13.0958459 159.000943,13.0922886 Z M156.728934,18.2806992 L163.214285,18.2805113 C164.898456,18.2805113 165.48208,18.3146466 165.58213,18.3146466 C165.698855,18.3146466 165.71553,18.2975789 165.71553,18.1781054 C165.71553,18.0984564 165.686478,17.8403937 165.682605,17.0847548 L165.68218,15.5496886 C165.68218,14.6451035 165.71553,14.3549536 165.71553,14.2696154 C165.71553,14.1501419 165.698855,14.1330743 165.58213,14.1330743 C165.49078,14.1330743 164.9963,14.1615311 163.629075,14.1664801 L156.525737,14.1664801 C155.145935,14.1615311 154.652778,14.1330743 154.576653,14.1330743 C154.443253,14.1330743 154.426578,14.1501419 154.426578,14.2696154 C154.426578,14.3492644 154.45563,14.6073271 154.459503,15.3768426 L154.459928,16.9150999 C154.459928,17.8026173 154.426578,18.0927672 154.426578,18.1781054 C154.426578,18.2975789 154.443253,18.3146466 154.576653,18.3146466 C154.656403,18.3146466 155.193847,18.283415 156.728934,18.2806992 Z M164.748382,17.5124674 L160.412891,17.5124674 L160.412891,14.9523211 L164.748382,14.9523211 L164.748382,17.5124674 Z M159.512443,17.5124674 L155.393726,17.5124674 L155.393726,14.9523211 L159.512443,14.9523211 L159.512443,17.5124674 Z M162.147087,17.290588 C162.213787,17.290588 162.263812,17.2393851 162.363862,17.1199116 C162.664011,16.7444235 162.947486,16.3518677 163.147585,16.0275825 C163.23096,15.8910414 163.29766,15.8227708 163.381035,15.7715679 C163.464409,15.720365 163.481084,15.6862297 163.481084,15.6350268 C163.481084,15.5838238 163.43106,15.5326209 163.347685,15.481418 C163.147585,15.3790121 162.930811,15.2936739 162.630661,15.1912681 C162.597311,15.3278092 162.530611,15.4984856 162.430562,15.669162 C162.180437,16.1299884 161.880288,16.5566794 161.496764,16.9833705 C161.646838,17.0345734 161.796913,17.102844 161.946988,17.2052498 C162.047037,17.2735204 162.097062,17.290588 162.147087,17.290588 Z M157.794921,17.1369793 L158.128421,16.9663028 C158.29517,16.8809646 158.311845,16.863897 158.245145,16.7444235 C157.995021,16.1982589 157.661522,15.6862297 157.344697,15.3278092 C157.244648,15.2254034 157.227973,15.2254034 157.077898,15.3107416 L156.777748,15.4643503 C156.610999,15.5496886 156.594324,15.5838238 156.661024,15.669162 C157.011198,16.1129207 157.294672,16.5737471 157.528122,17.1199116 C157.578147,17.2393851 157.611497,17.2393851 157.794921,17.1369793 Z M156.344199,24.5614035 C156.460924,24.5614035 156.477599,24.5443359 156.477599,24.4248624 L156.477599,23.9128331 L163.664509,23.9128331 L163.664509,24.4248624 C163.664509,24.5443359 163.681184,24.5614035 163.797909,24.5614035 L164.514932,24.5614035 C164.631657,24.5614035 164.648332,24.5443359 164.648332,24.4248624 C164.648332,24.3300421 164.61974,24.0449961 164.615504,22.3638772 L164.614982,20.7211841 C164.614982,19.867802 164.648332,19.4923138 164.648332,19.4069756 C164.648332,19.2875021 164.631657,19.2704345 164.514932,19.2704345 C164.435182,19.2704345 163.928251,19.301666 162.454191,19.3043818 L157.894971,19.3045698 C156.2775,19.3045698 155.727226,19.2704345 155.627176,19.2704345 C155.510451,19.2704345 155.493776,19.2875021 155.493776,19.4069756 C155.493776,19.5029811 155.523088,19.8239995 155.526752,20.70755 L155.527126,21.9329866 C155.527126,24.015239 155.493776,24.3224565 155.493776,24.4248624 C155.493776,24.5443359 155.510451,24.5614035 155.627176,24.5614035 L156.344199,24.5614035 Z M163.664509,21.199078 L156.477599,21.199078 L156.477599,20.0896813 L163.664509,20.0896813 L163.664509,21.199078 Z M163.664509,23.1277216 L156.477599,23.1277216 L156.477599,21.9500543 L163.664509,21.9500543 L163.664509,23.1277216 Z" id="" fill="#2A2A2A" fill-rule="nonzero"></path>
                <path d="M50.7586127,35.6527604 L50.7586127,30.0508507 L52.882404,30.0508507 L52.882404,29.5925126 L48.1403509,29.5925126 L48.1403509,30.0508507 L50.2641422,30.0508507 L50.2641422,35.6527604 L50.7586127,35.6527604 Z M55.1602108,35.7715888 C55.5574084,35.7715888 55.9221817,35.6612482 56.2626368,35.4575423 C56.5382433,35.2877875 56.7652134,35.0671062 56.9354409,34.8124739 L56.9354409,35.6527604 L57.3974871,35.6527604 L57.3974871,32.8263423 C57.3974871,32.3170778 57.2677899,31.9266417 57.0246077,31.6465462 C56.7408951,31.3070365 56.3031672,31.1457694 55.7195298,31.1457694 C55.2412715,31.1457694 54.85218,31.2476223 54.5522552,31.4598158 C54.2118001,31.6804971 54.0010422,32.0200068 53.9199815,32.4613694 L54.3982398,32.4953204 C54.4630884,32.1897617 54.6171038,31.9605926 54.860286,31.7993255 C55.07915,31.6465462 55.3547565,31.5786442 55.6952116,31.5786442 C56.505819,31.5786442 56.9111227,31.9945436 56.9111227,32.8263423 L56.9111227,33.0894623 L55.841121,33.1064378 C55.2088472,33.1064378 54.7143767,33.2252662 54.3739216,33.4544352 C53.976724,33.692092 53.7821782,34.0655527 53.7821782,34.5748172 C53.7821782,34.9313023 53.9118754,35.2283733 54.1793758,35.4490546 C54.422558,35.6612482 54.7549071,35.7715888 55.1602108,35.7715888 Z M55.2574836,35.3556894 C54.965665,35.3556894 54.7224828,35.2792998 54.5441492,35.1350081 C54.3658155,34.9907165 54.2766487,34.8039862 54.2766487,34.5663294 C54.2766487,33.8703346 54.8035435,33.5138494 55.8654392,33.5053617 L56.9111227,33.4883862 L56.9111227,33.9467243 C56.9111227,34.2862339 56.7408951,34.6087681 56.4085461,34.8973514 C56.068091,35.2029101 55.6789995,35.3556894 55.2574836,35.3556894 Z M59.3105205,30.534652 C59.4240056,30.534652 59.5131724,30.4922133 59.5942331,30.4158236 C59.6752938,30.3309462 59.7239303,30.2290933 59.7239303,30.1102649 C59.7239303,29.9829487 59.6833999,29.8810958 59.6023392,29.8131939 C59.5212784,29.7283165 59.4240056,29.6858778 59.3105205,29.6858778 C59.1889294,29.6858778 59.0916565,29.7283165 59.0187019,29.8131939 C58.9376411,29.8810958 58.8971108,29.9829487 58.8971108,30.1102649 C58.8971108,30.2290933 58.9376411,30.3309462 59.0187019,30.4158236 C59.0916565,30.4922133 59.1889294,30.534652 59.3105205,30.534652 Z M59.5537027,35.6527604 L59.5537027,31.2645978 L59.0673383,31.2645978 L59.0673383,35.6527604 L59.5537027,35.6527604 Z M62.658329,35.6527604 L63.7283307,31.9266417 L64.7821203,35.6527604 L65.2522726,35.6527604 L66.6870477,31.2645978 L66.1520468,31.2645978 L65.0090904,34.9992043 L63.9553008,31.2645978 L63.4851485,31.2645978 L62.4313589,34.9992043 L61.2965086,31.2645978 L60.7534017,31.2645978 L62.1962828,35.6527604 L62.658329,35.6527604 Z M68.8594754,35.7715888 C69.256673,35.7715888 69.6214464,35.6612482 69.9619015,35.4575423 C70.237508,35.2877875 70.464478,35.0671062 70.6347056,34.8124739 L70.6347056,35.6527604 L71.0967518,35.6527604 L71.0967518,32.8263423 C71.0967518,32.3170778 70.9670546,31.9266417 70.7238724,31.6465462 C70.4401598,31.3070365 70.0024318,31.1457694 69.4187945,31.1457694 C68.9405362,31.1457694 68.5514446,31.2476223 68.2515199,31.4598158 C67.9110648,31.6804971 67.7003069,32.0200068 67.6192461,32.4613694 L68.0975045,32.4953204 C68.1623531,32.1897617 68.3163685,31.9605926 68.5595507,31.7993255 C68.7784147,31.6465462 69.0540212,31.5786442 69.3944763,31.5786442 C70.2050837,31.5786442 70.6103874,31.9945436 70.6103874,32.8263423 L70.6103874,33.0894623 L69.5403856,33.1064378 C68.9081119,33.1064378 68.4136414,33.2252662 68.0731863,33.4544352 C67.6759887,33.692092 67.4814429,34.0655527 67.4814429,34.5748172 C67.4814429,34.9313023 67.6111401,35.2283733 67.8786405,35.4490546 C68.1218227,35.6612482 68.4541717,35.7715888 68.8594754,35.7715888 Z M68.9567483,35.3556894 C68.6649297,35.3556894 68.4217474,35.2792998 68.2434138,35.1350081 C68.0650802,34.9907165 67.9759134,34.8039862 67.9759134,34.5663294 C67.9759134,33.8703346 68.5028082,33.5138494 69.5647038,33.5053617 L70.6103874,33.4883862 L70.6103874,33.9467243 C70.6103874,34.2862339 70.4401598,34.6087681 70.1078108,34.8973514 C69.7673557,35.2029101 69.3782641,35.3556894 68.9567483,35.3556894 Z M73.0097852,35.6527604 L73.0097852,33.0045849 C73.0341034,32.5717101 73.1638006,32.2237126 73.4069828,31.9690804 C73.6339529,31.7144481 73.9095594,31.587132 74.2500145,31.587132 C75.0444097,31.587132 75.4416073,32.0539578 75.4416073,32.9876094 L75.4416073,35.6527604 L75.9279717,35.6527604 L75.9279717,32.9536584 C75.9279717,31.7483991 75.409183,31.1457694 74.3716056,31.1457694 C74.0797869,31.1457694 73.8122865,31.2136713 73.5772104,31.3664507 C73.3421342,31.51923 73.1556945,31.7229358 73.0097852,31.9860559 L73.0097852,31.2645978 L72.5234208,31.2645978 L72.5234208,35.6527604 L73.0097852,35.6527604 Z M81.0347982,35.6527604 L81.0347982,32.7499526 L84.6257889,32.7499526 L84.6257889,35.6527604 L85.1202594,35.6527604 L85.1202594,29.5925126 L84.6257889,29.5925126 L84.6257889,32.2831268 L81.0347982,32.2831268 L81.0347982,29.5925126 L80.5403277,29.5925126 L80.5403277,35.6527604 L81.0347982,35.6527604 Z M87.6412483,37.3333333 L89.9514794,31.2645978 L89.4164785,31.2645978 L88.0627642,34.9228146 L86.6928377,31.2645978 L86.1578368,31.2645978 L87.819582,35.5424198 L87.1143535,37.3333333 L87.6412483,37.3333333 Z M91.3943605,37.3333333 L91.3943605,34.7360843 C91.7023913,35.4235914 92.1887557,35.7715888 92.8615598,35.7715888 C93.4614093,35.7715888 93.9234555,35.533932 94.2639106,35.075594 C94.5638353,34.6512069 94.7178507,34.1164791 94.7178507,33.4714107 C94.7178507,32.8093668 94.5638353,32.2746391 94.2558045,31.850252 C93.9072434,31.3749384 93.4370911,31.1457694 92.8453477,31.1457694 C92.1644375,31.1457694 91.6780731,31.4683036 91.3700423,32.1303475 L91.3700423,31.2645978 L90.9079961,31.2645978 L90.9079961,37.3333333 L91.3943605,37.3333333 Z M92.772393,35.338714 C92.3427711,35.338714 92.002316,35.1689591 91.7510277,34.8294494 C91.4997394,34.4899398 91.3781483,34.0570649 91.3781483,33.5308249 L91.3781483,33.4374597 C91.3781483,32.902732 91.4916334,32.4698571 91.7267095,32.1388352 C91.9779978,31.7653746 92.334665,31.5786442 92.7886052,31.5786442 C93.2587575,31.5786442 93.6235308,31.7653746 93.8829251,32.147323 C94.1017891,32.4783449 94.2152742,32.9197075 94.2152742,33.4714107 C94.2152742,34.0231139 94.1017891,34.4644765 93.8748191,34.7954985 C93.6154247,35.1519836 93.2506514,35.338714 92.772393,35.338714 Z M97.6927798,35.7715888 C98.2277807,35.7715888 98.6574026,35.6103217 98.9978577,35.2877875 C99.2734642,35.0161798 99.4599039,34.6681823 99.5571768,34.2437952 L99.0627063,34.2437952 C98.9573273,34.5833049 98.811418,34.8379372 98.6168722,35.0161798 C98.3817961,35.2198856 98.0737653,35.3302262 97.6927798,35.3302262 C97.2550518,35.3302262 96.9145967,35.1774469 96.6552024,34.8718881 C96.4039141,34.5663294 96.2661108,34.1419423 96.2417926,33.6072146 L99.6463436,33.6072146 C99.6220254,32.8518055 99.4599039,32.2661513 99.1680852,31.850252 C98.8357362,31.3749384 98.3412657,31.1457694 97.6765677,31.1457694 C97.0848243,31.1457694 96.614672,31.3749384 96.2580047,31.8332765 C95.9094436,32.2746391 95.739216,32.8093668 95.739216,33.4544352 C95.739216,34.1504301 95.9175496,34.7191088 96.282323,35.1434959 C96.6308841,35.5593952 97.1010364,35.7715888 97.6927798,35.7715888 Z M99.1356609,33.1913152 L96.2498987,33.1913152 C96.290429,32.7160017 96.4363384,32.3340533 96.6876267,32.0369823 C96.9389149,31.7314236 97.271264,31.587132 97.6846737,31.587132 C98.5682358,31.587132 99.0546002,32.1218597 99.1356609,33.1913152 Z M101.316195,35.6527604 L101.316195,33.3356068 C101.316195,32.8942442 101.421574,32.5122959 101.648544,32.1897617 C101.875514,31.8332765 102.183545,31.6635217 102.556424,31.6635217 C102.767182,31.6635217 102.97794,31.6889849 103.196804,31.7568868 L103.196804,31.2391346 C103.034682,31.1712326 102.832031,31.1457694 102.588848,31.1457694 C102.280818,31.1457694 102.005211,31.2476223 101.778241,31.4513281 C101.583695,31.6125952 101.42968,31.8332765 101.316195,32.1048842 L101.316195,31.2645978 L100.82983,31.2645978 L100.82983,35.6527604 L101.316195,35.6527604 Z M106.155521,35.6527604 L106.155521,35.2113978 L105.628626,35.2113978 C105.450292,35.2113978 105.328701,35.1689591 105.263853,35.0925694 C105.199004,35.007692 105.16658,34.8634004 105.16658,34.6766701 L105.16658,31.7059604 L106.2609,31.7059604 L106.2609,31.2645978 L105.16658,31.2645978 L105.16658,29.8471449 L104.680215,30.0593384 L104.680215,31.2645978 L103.788547,31.2645978 L103.788547,31.7059604 L104.680215,31.7059604 L104.680215,34.6766701 C104.680215,34.9992043 104.736958,35.2368611 104.866655,35.3896404 C105.004458,35.5593952 105.239534,35.6527604 105.563777,35.6527604 L106.155521,35.6527604 Z M109.114238,35.7715888 C109.649239,35.7715888 110.078861,35.6103217 110.419316,35.2877875 C110.694922,35.0161798 110.881362,34.6681823 110.978635,34.2437952 L110.484164,34.2437952 C110.378785,34.5833049 110.232876,34.8379372 110.03833,35.0161798 C109.803254,35.2198856 109.495223,35.3302262 109.114238,35.3302262 C108.67651,35.3302262 108.336055,35.1774469 108.07666,34.8718881 C107.825372,34.5663294 107.687569,34.1419423 107.663251,33.6072146 L111.067802,33.6072146 C111.043483,32.8518055 110.881362,32.2661513 110.589543,31.850252 C110.257194,31.3749384 109.762724,31.1457694 109.098026,31.1457694 C108.506282,31.1457694 108.03613,31.3749384 107.679463,31.8332765 C107.330902,32.2746391 107.160674,32.8093668 107.160674,33.4544352 C107.160674,34.1504301 107.339008,34.7191088 107.703781,35.1434959 C108.052342,35.5593952 108.522494,35.7715888 109.114238,35.7715888 Z M110.557119,33.1913152 L107.671357,33.1913152 C107.711887,32.7160017 107.857796,32.3340533 108.109085,32.0369823 C108.360373,31.7314236 108.692722,31.587132 109.106132,31.587132 C109.989694,31.587132 110.476058,32.1218597 110.557119,33.1913152 Z M112.737653,35.6527604 L112.737653,33.0045849 C112.761971,32.5717101 112.891668,32.2237126 113.13485,31.9690804 C113.36182,31.7144481 113.637427,31.587132 113.977882,31.587132 C114.772277,31.587132 115.169475,32.0539578 115.169475,32.9876094 L115.169475,35.6527604 L115.655839,35.6527604 L115.655839,32.9536584 C115.655839,31.7483991 115.137051,31.1457694 114.099473,31.1457694 C113.807654,31.1457694 113.540154,31.2136713 113.305078,31.3664507 C113.070002,31.51923 112.883562,31.7229358 112.737653,31.9860559 L112.737653,31.2645978 L112.251288,31.2645978 L112.251288,35.6527604 L112.737653,35.6527604 Z M118.598344,35.7715888 C119.733194,35.7715888 120.30062,35.3217385 120.30062,34.4390133 C120.30062,34.0655527 120.130392,33.7684817 119.798043,33.5562881 C119.587285,33.4204843 119.222512,33.2846804 118.711829,33.1488765 C118.282207,33.0300481 117.990389,32.9281952 117.828267,32.8433178 C117.576979,32.7075139 117.455388,32.5292713 117.455388,32.30859 C117.455388,32.0879088 117.552661,31.9181539 117.747206,31.78235 C117.941752,31.6465462 118.19304,31.587132 118.501071,31.587132 C118.873951,31.587132 119.157663,31.6635217 119.352209,31.8247888 C119.530543,31.9690804 119.644028,32.1897617 119.70077,32.4953204 L120.179028,32.4953204 C120.057437,31.5956197 119.498118,31.1457694 118.509177,31.1457694 C118.071449,31.1457694 117.69857,31.2476223 117.406751,31.4598158 C117.09872,31.6804971 116.952811,31.9605926 116.952811,32.3170778 C116.952811,32.673563 117.106826,32.9536584 117.431069,33.1573643 C117.625615,33.2846804 117.96607,33.4119965 118.452435,33.5478004 C118.930693,33.6751165 119.238724,33.7769694 119.384633,33.8533591 C119.66024,33.9976507 119.798043,34.2013565 119.798043,34.4644765 C119.798043,35.041643 119.392739,35.3302262 118.582132,35.3302262 C118.19304,35.3302262 117.901222,35.2538365 117.706676,35.1010572 C117.495918,34.9313023 117.366221,34.6512069 117.317584,34.2692585 L116.839326,34.2692585 C116.936599,35.270812 117.520236,35.7715888 118.598344,35.7715888 Z M121.970471,30.534652 C122.083956,30.534652 122.173123,30.4922133 122.254183,30.4158236 C122.335244,30.3309462 122.38388,30.2290933 122.38388,30.1102649 C122.38388,29.9829487 122.34335,29.8810958 122.262289,29.8131939 C122.181229,29.7283165 122.083956,29.6858778 121.970471,29.6858778 C121.84888,29.6858778 121.751607,29.7283165 121.678652,29.8131939 C121.597591,29.8810958 121.557061,29.9829487 121.557061,30.1102649 C121.557061,30.2290933 121.597591,30.3309462 121.678652,30.4158236 C121.751607,30.4922133 121.84888,30.534652 121.970471,30.534652 Z M122.213653,35.6527604 L122.213653,31.2645978 L121.727289,31.2645978 L121.727289,35.6527604 L122.213653,35.6527604 Z M125.715477,35.7715888 C126.331538,35.7715888 126.826009,35.533932 127.198888,35.075594 C127.539343,34.6427191 127.709571,34.1079914 127.709571,33.462923 C127.709571,32.8178546 127.539343,32.2746391 127.198888,31.8417642 C126.826009,31.3749384 126.331538,31.1457694 125.715477,31.1457694 C125.099415,31.1457694 124.604945,31.3749384 124.240171,31.8417642 C123.89161,32.2746391 123.721383,32.8178546 123.721383,33.462923 C123.721383,34.1079914 123.89161,34.6427191 124.232065,35.075594 C124.604945,35.533932 125.099415,35.7715888 125.715477,35.7715888 Z M125.715477,35.3302262 C125.237218,35.3302262 124.864339,35.1350081 124.588733,34.7530598 C124.337444,34.4135501 124.215853,33.9806752 124.215853,33.462923 C124.215853,32.936683 124.337444,32.5038081 124.588733,32.1642984 C124.864339,31.7738623 125.237218,31.587132 125.715477,31.587132 C126.193735,31.587132 126.574721,31.7738623 126.850327,32.1642984 C127.093509,32.5038081 127.223207,32.936683 127.223207,33.462923 C127.223207,33.9721875 127.093509,34.4050623 126.850327,34.7530598 C126.574721,35.1350081 126.193735,35.3302262 125.715477,35.3302262 Z M129.460483,35.6527604 L129.460483,33.0045849 C129.484801,32.5717101 129.614498,32.2237126 129.857681,31.9690804 C130.084651,31.7144481 130.360257,31.587132 130.700712,31.587132 C131.495107,31.587132 131.892305,32.0539578 131.892305,32.9876094 L131.892305,35.6527604 L132.378669,35.6527604 L132.378669,32.9536584 C132.378669,31.7483991 131.859881,31.1457694 130.822303,31.1457694 C130.530485,31.1457694 130.262984,31.2136713 130.027908,31.3664507 C129.792832,31.51923 129.606392,31.7229358 129.460483,31.9860559 L129.460483,31.2645978 L128.974118,31.2645978 L128.974118,35.6527604 L129.460483,35.6527604 Z M138.968907,35.7715888 C139.625499,35.7715888 140.152394,35.6272972 140.549592,35.338714 C140.963002,35.0331552 141.173759,34.6172559 141.173759,34.0995036 C141.173759,33.5478004 140.930577,33.1234133 140.452319,32.8263423 C140.192925,32.6565875 139.698454,32.4698571 138.960801,32.2491759 C138.393376,32.079421 138.020497,31.9436171 137.850269,31.8587397 C137.485496,31.6550339 137.307162,31.3919139 137.307162,31.0524042 C137.307162,30.6704558 137.453072,30.3818726 137.761102,30.1951423 C138.028603,30.0253874 138.393376,29.94051 138.863528,29.94051 C139.366105,29.94051 139.755197,30.0593384 140.030803,30.3054829 C140.30641,30.5516274 140.476637,30.9081126 140.541486,31.3834262 L141.035956,31.3834262 C140.98732,30.7553333 140.768456,30.2800197 140.38747,29.9574855 C140.014591,29.6349513 139.512014,29.4736842 138.879741,29.4736842 C138.296103,29.4736842 137.809739,29.6010003 137.436859,29.8641203 C137.015344,30.1442158 136.812692,30.5431397 136.812692,31.0693797 C136.812692,31.5616688 137.031556,31.9436171 137.47739,32.2067371 C137.671936,32.3255655 138.11777,32.4868326 138.806786,32.6905384 C139.463378,32.8772688 139.884894,33.0385359 140.07944,33.1573643 C140.468531,33.3865333 140.671183,33.7090675 140.671183,34.1249668 C140.671183,34.481452 140.509061,34.7700352 140.201031,34.9822288 C139.884894,35.1859346 139.471484,35.2962752 138.960801,35.2962752 C138.4258,35.2962752 138.012391,35.1689591 137.720572,34.9228146 C137.396329,34.6427191 137.209889,34.218332 137.153147,33.6496533 L136.666782,33.6496533 C136.715419,34.3795991 136.958601,34.9313023 137.396329,35.2962752 C137.777315,35.6103217 138.304209,35.7715888 138.968907,35.7715888 Z M144.189219,35.7715888 C144.805281,35.7715888 145.299751,35.533932 145.67263,35.075594 C146.013086,34.6427191 146.183313,34.1079914 146.183313,33.462923 C146.183313,32.8178546 146.013086,32.2746391 145.67263,31.8417642 C145.299751,31.3749384 144.805281,31.1457694 144.189219,31.1457694 C143.573157,31.1457694 143.078687,31.3749384 142.713913,31.8417642 C142.365352,32.2746391 142.195125,32.8178546 142.195125,33.462923 C142.195125,34.1079914 142.365352,34.6427191 142.705807,35.075594 C143.078687,35.533932 143.573157,35.7715888 144.189219,35.7715888 Z M144.189219,35.3302262 C143.710961,35.3302262 143.338081,35.1350081 143.062475,34.7530598 C142.811186,34.4135501 142.689595,33.9806752 142.689595,33.462923 C142.689595,32.936683 142.811186,32.5038081 143.062475,32.1642984 C143.338081,31.7738623 143.710961,31.587132 144.189219,31.587132 C144.667477,31.587132 145.048463,31.7738623 145.324069,32.1642984 C145.567251,32.5038081 145.696949,32.936683 145.696949,33.462923 C145.696949,33.9721875 145.567251,34.4050623 145.324069,34.7530598 C145.048463,35.1350081 144.667477,35.3302262 144.189219,35.3302262 Z M149.206879,35.7715888 C149.709455,35.7715888 150.122865,35.6272972 150.430896,35.3472017 C150.747033,35.0586185 150.949684,34.6342314 151.030745,34.0825281 L150.552487,34.0825281 C150.430896,34.9143269 149.985062,35.3302262 149.206879,35.3302262 C148.744832,35.3302262 148.388165,35.1604714 148.144983,34.8294494 C147.901801,34.4984275 147.78021,34.0485772 147.78021,33.4883862 C147.78021,32.9197075 147.901801,32.4613694 148.161195,32.1218597 C148.420589,31.7653746 148.777257,31.587132 149.214985,31.587132 C149.579758,31.587132 149.879683,31.6804971 150.106653,31.8672275 C150.333623,32.0539578 150.471426,32.3255655 150.528169,32.6990262 L151.014533,32.6990262 C150.949684,32.1727862 150.755139,31.78235 150.439002,31.5277178 C150.122865,31.2730855 149.717561,31.1457694 149.214985,31.1457694 C148.607029,31.1457694 148.128771,31.3749384 147.78021,31.8417642 C147.447861,32.2746391 147.285739,32.8263423 147.285739,33.4883862 C147.285739,34.1589178 147.439755,34.7021333 147.763997,35.1095449 C148.104453,35.5509075 148.590817,35.7715888 149.206879,35.7715888 Z M152.700596,30.534652 C152.814081,30.534652 152.903248,30.4922133 152.984309,30.4158236 C153.06537,30.3309462 153.114006,30.2290933 153.114006,30.1102649 C153.114006,29.9829487 153.073476,29.8810958 152.992415,29.8131939 C152.911354,29.7283165 152.814081,29.6858778 152.700596,29.6858778 C152.579005,29.6858778 152.481732,29.7283165 152.408778,29.8131939 C152.327717,29.8810958 152.287187,29.9829487 152.287187,30.1102649 C152.287187,30.2290933 152.327717,30.3309462 152.408778,30.4158236 C152.481732,30.4922133 152.579005,30.534652 152.700596,30.534652 Z M152.943779,35.6527604 L152.943779,31.2645978 L152.457414,31.2645978 L152.457414,35.6527604 L152.943779,35.6527604 Z M156.324011,35.7715888 C156.859012,35.7715888 157.288634,35.6103217 157.629089,35.2877875 C157.904696,35.0161798 158.091135,34.6681823 158.188408,34.2437952 L157.693938,34.2437952 C157.588559,34.5833049 157.44265,34.8379372 157.248104,35.0161798 C157.013028,35.2198856 156.704997,35.3302262 156.324011,35.3302262 C155.886283,35.3302262 155.545828,35.1774469 155.286434,34.8718881 C155.035146,34.5663294 154.897342,34.1419423 154.873024,33.6072146 L158.277575,33.6072146 C158.253257,32.8518055 158.091135,32.2661513 157.799317,31.850252 C157.466968,31.3749384 156.972497,31.1457694 156.307799,31.1457694 C155.716056,31.1457694 155.245904,31.3749384 154.889236,31.8332765 C154.540675,32.2746391 154.370448,32.8093668 154.370448,33.4544352 C154.370448,34.1504301 154.548781,34.7191088 154.913555,35.1434959 C155.262116,35.5593952 155.732268,35.7715888 156.324011,35.7715888 Z M157.766892,33.1913152 L154.88113,33.1913152 C154.921661,32.7160017 155.06757,32.3340533 155.318858,32.0369823 C155.570146,31.7314236 155.902496,31.587132 156.315905,31.587132 C157.199467,31.587132 157.685832,32.1218597 157.766892,33.1913152 Z M161.463262,35.6527604 L161.463262,35.2113978 L160.936367,35.2113978 C160.758034,35.2113978 160.636443,35.1689591 160.571594,35.0925694 C160.506745,35.007692 160.474321,34.8634004 160.474321,34.6766701 L160.474321,31.7059604 L161.568641,31.7059604 L161.568641,31.2645978 L160.474321,31.2645978 L160.474321,29.8471449 L159.987957,30.0593384 L159.987957,31.2645978 L159.096289,31.2645978 L159.096289,31.7059604 L159.987957,31.7059604 L159.987957,34.6766701 C159.987957,34.9992043 160.044699,35.2368611 160.174396,35.3896404 C160.3122,35.5593952 160.547276,35.6527604 160.871519,35.6527604 L161.463262,35.6527604 Z M163.724857,37.3333333 L166.035088,31.2645978 L165.500087,31.2645978 L164.146373,34.9228146 L162.776446,31.2645978 L162.241445,31.2645978 L163.90319,35.5424198 L163.197962,37.3333333 L163.724857,37.3333333 Z" id="TaiwanHypertensionSociety" fill="#525252" fill-rule="nonzero"></path>
            </g>
        </g>
    </g>
</svg>